<svg xmlns="http://www.w3.org/2000/svg" xmlns:xlink="http://www.w3.org/1999/xlink" version="1.1" width="676" height="400" viewBox="0 0 676 400" xml:space="preserve">
<desc>Created with Fabric.js 5.2.4</desc>
<defs>
</defs>
<g transform="matrix(0 0 0 0 0 0)" id="f34a7afe-106f-4946-ae88-037c61b6dff5">
</g>
<g transform="matrix(1 0 0 1 338 200)" id="7ced7afb-20f3-4bbd-9c17-4ddf397ed9e9">
<rect style="stroke: none; stroke-width: 1; stroke-dasharray: none; stroke-linecap: butt; stroke-dashoffset: 0; stroke-linejoin: miter; stroke-miterlimit: 4; fill: rgb(255,255,255); fill-rule: nonzero; opacity: 1; visibility: hidden;" vector-effect="non-scaling-stroke" x="-338" y="-200" rx="0" ry="0" width="676" height="400"/>
</g>
<g transform="matrix(1 0 0 1 281.56 200)">
<g style="" vector-effect="non-scaling-stroke">
		<g transform="matrix(1 0 0 1 -142.55 -49.33)">
<path style="stroke: none; stroke-width: 1; stroke-dasharray: none; stroke-linecap: butt; stroke-dashoffset: 0; stroke-linejoin: miter; stroke-miterlimit: 4; fill: rgb(183,187,190); fill-rule: nonzero; opacity: 1;" vector-effect="non-scaling-stroke" transform=" translate(-105.8, -206.13)" d="M 242.554 169.905 L 227.636 161.292 L 227.636 178.518 L 242.554 169.905 Z M -30.9448 250.96 L 44.143 250.96 L 44.143 247.976 L -30.9448 247.976 L -30.9448 250.96 Z M 65.5256 229.577 L 65.5256 189.796 L 62.542 189.796 L 62.542 229.577 L 65.5256 229.577 Z M 83.9246 171.397 L 229.127 171.397 L 229.127 168.413 L 83.9246 168.413 L 83.9246 171.397 Z M 65.5256 189.796 C 65.5256 179.634 73.7631 171.397 83.9246 171.397 L 83.9246 168.413 C 72.1153 168.413 62.542 177.986 62.542 189.796 L 65.5256 189.796 Z M 44.143 250.96 C 55.9522 250.96 65.5256 241.387 65.5256 229.577 L 62.542 229.577 C 62.542 239.739 54.3044 247.976 44.143 247.976 L 44.143 250.96 Z" stroke-linecap="round"/>
</g>
		<g transform="matrix(1 0 0 1 -72.93 37.35)">
<path style="stroke: none; stroke-width: 1; stroke-dasharray: none; stroke-linecap: butt; stroke-dashoffset: 0; stroke-linejoin: miter; stroke-miterlimit: 4; fill: rgb(183,187,190); fill-rule: nonzero; opacity: 1;" vector-effect="non-scaling-stroke" transform=" translate(-175.42, -292.81)" d="M 381.789 329.031 L 366.871 337.644 L 366.871 320.418 L 381.789 329.031 Z M -30.9448 247.976 L -27.1904 247.976 L -27.1904 250.959 L -30.9448 250.959 L -30.9448 247.976 Z M -19.6817 247.976 L -12.1729 247.976 L -12.1729 250.959 L -19.6817 250.959 L -19.6817 247.976 Z M -4.6641 247.976 L 2.84467 247.976 L 2.84467 250.959 L -4.6641 250.959 L -4.6641 247.976 Z M 10.3534 247.976 L 17.8622 247.976 L 17.8622 250.959 L 10.3534 250.959 L 10.3534 247.976 Z M 25.371 247.976 L 32.8798 247.976 L 32.8798 250.959 L 25.371 250.959 L 25.371 247.976 Z M 40.3886 247.976 L 44.143 247.976 L 44.143 250.959 L 40.3886 250.959 L 40.3886 247.976 Z M 44.143 247.976 C 45.5691 247.976 46.964 248.116 48.3144 248.383 L 47.7354 251.31 C 46.5747 251.08 45.3736 250.959 44.143 250.959 L 44.143 247.976 Z M 56.0245 251.578 C 58.3557 253.139 60.3624 255.146 61.9231 257.477 L 59.4438 259.137 C 58.1001 257.13 56.3718 255.401 54.3647 254.058 L 56.0245 251.578 Z M 65.1186 265.187 C 65.3857 266.537 65.5256 267.932 65.5256 269.358 L 62.542 269.358 C 62.542 268.128 62.4213 266.927 62.1917 265.766 L 65.1186 265.187 Z M 65.5256 269.358 L 65.5256 272.674 L 62.542 272.674 L 62.542 269.358 L 65.5256 269.358 Z M 65.5256 279.304 L 65.5256 285.934 L 62.542 285.934 L 62.542 279.304 L 65.5256 279.304 Z M 65.5256 292.564 L 65.5256 299.195 L 62.542 299.195 L 62.542 292.564 L 65.5256 292.564 Z M 65.5256 305.825 L 65.5256 309.14 L 62.542 309.14 L 62.542 305.825 L 65.5256 305.825 Z M 65.5256 309.14 C 65.5256 310.371 65.6462 311.572 65.8758 312.732 L 62.9489 313.312 C 62.6818 311.961 62.542 310.566 62.542 309.14 L 65.5256 309.14 Z M 68.6237 319.362 C 69.9674 321.369 71.6958 323.097 73.7029 324.441 L 72.043 326.92 C 69.7118 325.36 67.7051 323.353 66.1444 321.022 L 68.6237 319.362 Z M 80.3322 327.189 C 81.4928 327.418 82.6939 327.539 83.9246 327.539 L 83.9246 330.523 C 82.4984 330.523 81.1035 330.383 79.7531 330.116 L 80.3322 327.189 Z M 83.9246 327.539 L 87.8438 327.539 L 87.8438 330.523 L 83.9246 330.523 L 83.9246 327.539 Z M 95.6824 327.539 L 103.521 327.539 L 103.521 330.523 L 95.6824 330.523 L 95.6824 327.539 Z M 111.359 327.539 L 119.198 327.539 L 119.198 330.523 L 111.359 330.523 L 111.359 327.539 Z M 127.037 327.539 L 134.875 327.539 L 134.875 330.523 L 127.037 330.523 L 127.037 327.539 Z M 142.714 327.539 L 150.552 327.539 L 150.552 330.523 L 142.714 330.523 L 142.714 327.539 Z M 158.391 327.539 L 166.229 327.539 L 166.229 330.523 L 158.391 330.523 L 158.391 327.539 Z M 174.068 327.539 L 181.906 327.539 L 181.906 330.523 L 174.068 330.523 L 174.068 327.539 Z M 189.745 327.539 L 197.583 327.539 L 197.583 330.523 L 189.745 330.523 L 189.745 327.539 Z M 205.422 327.539 L 213.261 327.539 L 213.261 330.523 L 205.422 330.523 L 205.422 327.539 Z M 221.099 327.539 L 228.938 327.539 L 228.938 330.523 L 221.099 330.523 L 221.099 327.539 Z M 236.776 327.539 L 244.615 327.539 L 244.615 330.523 L 236.776 330.523 L 236.776 327.539 Z M 252.453 327.539 L 260.292 327.539 L 260.292 330.523 L 252.453 330.523 L 252.453 327.539 Z M 268.13 327.539 L 275.969 327.539 L 275.969 330.523 L 268.13 330.523 L 268.13 327.539 Z M 283.807 327.539 L 291.646 327.539 L 291.646 330.523 L 283.807 330.523 L 283.807 327.539 Z M 299.485 327.539 L 307.323 327.539 L 307.323 330.523 L 299.485 330.523 L 299.485 327.539 Z M 315.162 327.539 L 323 327.539 L 323 330.523 L 315.162 330.523 L 315.162 327.539 Z M 330.839 327.539 L 338.677 327.539 L 338.677 330.523 L 330.839 330.523 L 330.839 327.539 Z M 346.516 327.539 L 354.354 327.539 L 354.354 330.523 L 346.516 330.523 L 346.516 327.539 Z M 362.193 327.539 L 370.032 327.539 L 370.032 330.523 L 362.193 330.523 L 362.193 327.539 Z" stroke-linecap="round"/>
</g>
		<g transform="matrix(1 0.03 -0.03 1 136.74 -78.03)">
<rect style="stroke: none; stroke-width: 1; stroke-dasharray: none; stroke-linecap: butt; stroke-dashoffset: 0; stroke-linejoin: miter; stroke-miterlimit: 4; fill: rgb(252,231,226); fill-rule: nonzero; opacity: 1;" vector-effect="non-scaling-stroke" x="-141.325" y="-37.42" rx="16" ry="16" width="282.65" height="74.84"/>
</g>
		<g transform="matrix(1 0.03 -0.03 1 136.74 -78.03)">
<rect style="stroke: rgb(223,40,0); stroke-width: 1; stroke-dasharray: none; stroke-linecap: butt; stroke-dashoffset: 0; stroke-linejoin: miter; stroke-miterlimit: 4; fill: none; fill-rule: nonzero; opacity: 1;" vector-effect="non-scaling-stroke" x="-141.325" y="-37.42" rx="16" ry="16" width="282.65" height="74.84"/>
</g>
		<g transform="matrix(1 0.03 -0.03 1 33 -81.65)">
<rect style="stroke: none; stroke-width: 1; stroke-dasharray: none; stroke-linecap: butt; stroke-dashoffset: 0; stroke-linejoin: miter; stroke-miterlimit: 4; fill: rgb(247,80,43); fill-rule: nonzero; opacity: 1;" vector-effect="non-scaling-stroke" x="-27.62" y="-26.73" rx="8" ry="8" width="55.24" height="53.46"/>
</g>
		<g transform="matrix(1 0.03 -0.03 1 33 -81.65)">
<rect style="stroke: rgb(223,40,0); stroke-width: 0.99; stroke-dasharray: none; stroke-linecap: butt; stroke-dashoffset: 0; stroke-linejoin: miter; stroke-miterlimit: 4; fill: none; fill-rule: nonzero; opacity: 1;" vector-effect="non-scaling-stroke" x="-27.62" y="-26.73" rx="8" ry="8" width="55.24" height="53.46"/>
</g>
		<g transform="matrix(1 0 0 1 32.95 -81.62)">
<path style="stroke: none; stroke-width: 1; stroke-dasharray: none; stroke-linecap: butt; stroke-dashoffset: 0; stroke-linejoin: miter; stroke-miterlimit: 4; fill: rgb(255,255,255); fill-rule: evenodd; opacity: 1;" vector-effect="non-scaling-stroke" transform=" translate(-281.3, -173.83)" d="M 286.474 163.679 C 286.452 164.309 285.923 164.802 285.293 164.78 L 278.368 164.538 C 277.738 164.516 277.244 163.987 277.266 163.357 C 277.302 162.34 276.506 161.487 275.489 161.451 C 274.472 161.416 273.619 162.211 273.583 163.228 C 273.561 163.866 273.031 164.36 272.393 164.378 C 271.065 164.415 270.211 164.61 269.578 165.2 C 268.95 165.786 268.694 166.618 268.565 167.928 C 268.561 167.96 268.587 167.988 268.619 167.99 L 294.252 168.885 C 294.398 168.89 294.536 168.78 294.53 168.635 C 294.477 167.432 294.272 166.639 293.716 166.043 C 293.172 165.46 292.418 165.198 291.268 165.059 C 290.63 164.983 290.134 164.45 290.157 163.808 C 290.192 162.791 289.396 161.937 288.379 161.902 C 287.362 161.866 286.509 162.662 286.474 163.679 Z M 294.396 171.635 C 294.444 171.628 294.488 171.665 294.486 171.713 L 294.204 179.783 C 294.095 182.897 294.041 184.453 293.04 185.387 C 292.039 186.32 290.483 186.266 287.369 186.157 L 274.506 185.708 C 271.393 185.599 269.836 185.545 268.903 184.544 C 267.97 183.543 268.024 181.986 268.133 178.873 L 268.414 170.803 C 268.416 170.771 268.444 170.747 268.475 170.749 C 268.491 170.75 268.507 170.751 268.523 170.752 L 294.156 171.647 C 294.237 171.65 294.317 171.645 294.396 171.635 Z M 275.621 173.743 C 276.482 173.774 277.155 174.495 277.125 175.356 C 277.095 176.217 276.373 176.89 275.512 176.86 L 273.877 176.803 C 273.016 176.773 272.343 176.051 272.373 175.19 C 272.403 174.33 273.125 173.656 273.986 173.686 L 275.621 173.743 Z M 283.57 175.582 C 283.6 174.722 282.926 174 282.066 173.97 L 280.431 173.912 C 279.57 173.882 278.848 174.556 278.818 175.416 C 278.788 176.277 279.461 176.999 280.322 177.029 L 281.957 177.086 C 282.818 177.116 283.54 176.443 283.57 175.582 Z M 288.507 174.194 C 289.367 174.224 290.041 174.946 290.011 175.806 C 289.981 176.667 289.259 177.34 288.398 177.31 L 286.763 177.253 C 285.902 177.223 285.229 176.501 285.259 175.64 C 285.289 174.78 286.011 174.106 286.872 174.137 L 288.507 174.194 Z M 276.944 180.547 C 276.974 179.686 276.301 178.964 275.441 178.934 L 273.805 178.877 C 272.945 178.847 272.223 179.52 272.193 180.381 C 272.163 181.241 272.836 181.963 273.696 181.993 L 275.332 182.051 C 276.192 182.081 276.914 181.407 276.944 180.547 Z M 281.885 179.158 C 282.746 179.189 283.419 179.91 283.389 180.771 C 283.359 181.632 282.637 182.305 281.777 182.275 L 280.141 182.218 C 279.281 182.188 278.607 181.466 278.638 180.605 C 278.668 179.745 279.39 179.071 280.25 179.101 L 281.885 179.158 Z M 289.83 180.996 C 289.86 180.136 289.187 179.414 288.326 179.384 L 286.691 179.326 C 285.831 179.296 285.109 179.97 285.079 180.83 C 285.048 181.691 285.722 182.413 286.582 182.443 L 288.218 182.5 C 289.078 182.53 289.8 181.857 289.83 180.996 Z" stroke-linecap="round"/>
</g>
		<g transform="matrix(1 0 0 1 169.21 -74.14)">
<path style="stroke: none; stroke-width: 1; stroke-dasharray: none; stroke-linecap: butt; stroke-dashoffset: 0; stroke-linejoin: miter; stroke-miterlimit: 4; fill: rgb(247,80,43); fill-rule: nonzero; opacity: 1;" vector-effect="non-scaling-stroke" transform=" translate(-417.57, -181.31)" d="M 325.638 185.354 L 326.335 165.409 L 335.025 165.713 C 339.185 165.858 341.455 167.848 341.342 171.068 C 341.248 173.775 338.715 175.227 336.576 175.209 L 336.57 175.38 C 338.705 175.512 341.679 176.957 341.56 180.347 C 341.439 183.823 338.973 185.82 334.784 185.673 L 325.638 185.354 Z M 329.211 182.712 L 334.51 182.897 C 336.448 182.964 337.856 181.844 337.921 179.992 C 337.986 178.14 336.659 176.924 334.721 176.856 L 329.422 176.671 L 329.211 182.712 Z M 329.516 173.964 L 334.217 174.129 C 336.326 174.202 337.733 173.11 337.795 171.344 C 337.857 169.577 336.526 168.475 334.417 168.401 L 329.716 168.237 L 329.516 173.964 Z M 351.341 186.68 C 346.982 186.527 344.122 183.461 344.282 178.873 C 344.442 174.286 347.509 171.426 351.869 171.578 C 356.228 171.731 359.116 174.798 358.956 179.386 C 358.796 183.973 355.701 186.832 351.341 186.68 Z M 347.701 178.993 C 347.589 182.212 349.274 183.783 351.44 183.859 C 353.605 183.934 355.424 182.486 355.537 179.266 C 355.648 176.075 353.937 174.446 351.771 174.371 C 349.606 174.295 347.813 175.801 347.701 178.993 Z M 368.426 187.276 C 364.066 187.124 361.207 184.057 361.367 179.47 C 361.527 174.882 364.594 172.023 368.953 172.175 C 373.313 172.327 376.201 175.395 376.041 179.982 C 375.88 184.57 372.785 187.428 368.426 187.276 Z M 364.786 179.589 C 364.673 182.809 366.359 184.38 368.524 184.455 C 370.69 184.531 372.509 183.083 372.621 179.863 C 372.733 176.672 371.021 175.043 368.856 174.967 C 366.69 174.892 364.897 176.398 364.786 179.589 Z M 378.829 187.212 L 379.526 167.267 L 382.86 167.383 L 382.437 179.492 L 388.844 173.297 L 392.975 173.442 L 386.933 178.993 L 393.104 187.71 L 388.944 187.565 L 384.603 181.166 L 382.304 183.282 L 382.163 187.328 L 378.829 187.212 Z M 401.6 188.007 L 402.297 168.062 L 407.283 168.236 L 412.345 185.044 L 412.515 185.05 L 418.737 168.636 L 423.723 168.81 L 423.027 188.755 L 419.665 188.638 L 420.319 173.17 L 420.205 173.166 L 414.194 188.446 L 410.462 188.316 L 405.531 172.654 L 405.389 172.649 L 404.962 188.124 L 401.6 188.007 Z M 433.728 189.557 C 429.796 189.419 426.638 186.713 426.811 181.755 C 426.973 177.111 430.067 174.309 434.369 174.459 C 438.5 174.604 441.377 177.186 441.214 181.859 C 441.196 182.372 441.155 182.741 441.088 183.024 L 430.004 182.637 C 430.021 185.405 431.71 186.89 433.989 186.97 C 435.727 187.03 437.123 186.28 437.637 184.615 L 440.914 184.73 C 440.255 188.073 437.375 189.684 433.728 189.557 Z M 430.16 180.617 L 437.853 180.886 C 437.933 178.606 436.506 176.987 434.198 176.907 C 431.947 176.828 430.381 178.371 430.16 180.617 Z M 450.506 190.142 C 446.574 190.005 443.416 187.299 443.59 182.341 C 443.752 177.697 446.845 174.895 451.147 175.045 C 455.279 175.19 458.156 177.772 457.992 182.445 C 457.974 182.958 457.933 183.327 457.866 183.61 L 446.782 183.223 C 446.8 185.991 448.488 187.476 450.768 187.556 C 452.506 187.616 453.901 186.866 454.416 185.201 L 457.692 185.315 C 457.034 188.659 454.153 190.27 450.506 190.142 Z M 446.939 181.203 L 454.632 181.471 C 454.711 179.192 453.284 177.573 450.976 177.493 C 448.725 177.414 447.16 178.957 446.939 181.203 Z M 465.921 190.253 C 463.299 190.161 461.807 188.797 461.899 186.147 L 462.17 178.397 L 459.15 178.292 L 459.238 175.756 L 462.258 175.861 L 462.398 171.872 L 465.731 171.989 L 465.592 175.978 L 469.638 176.119 L 469.549 178.655 L 465.503 178.513 L 465.253 185.694 C 465.214 186.805 465.79 187.453 466.873 187.49 L 469.238 187.573 L 469.14 190.365 L 465.921 190.253 Z M 471.595 190.451 L 472.092 176.205 L 475.454 176.322 L 474.957 190.568 L 471.595 190.451 Z M 472.162 174.21 L 472.291 170.506 L 475.653 170.623 L 475.524 174.327 L 472.162 174.21 Z M 478.555 190.694 L 479.052 176.448 L 482.386 176.564 L 482.202 180.209 L 482.344 180.214 C 482.82 178.034 484.794 176.22 487.273 176.307 C 490.692 176.426 492.128 178.616 491.991 182.519 L 491.69 191.153 L 488.328 191.035 L 488.614 182.829 C 488.699 180.407 487.661 179.087 485.724 179.02 C 483.587 178.945 482.228 181.094 482.149 183.345 L 481.888 190.81 L 478.555 190.694 Z M 494.01 193.259 C 494.077 191.322 495.932 190.502 498.101 190.464 L 498.106 190.321 C 496.112 190.252 495.263 189.223 495.311 187.856 C 495.361 186.431 496.624 185.391 498.533 185.458 L 498.539 185.287 C 496.381 184.983 495.328 183.292 495.393 181.411 C 495.493 178.562 497.756 176.644 502.315 176.804 L 503.854 176.857 C 504.965 176.896 505.953 176.389 505.993 175.249 L 506.02 174.451 L 509.497 174.572 L 509.481 175.028 C 509.404 177.222 507.829 178.223 506.091 178.162 L 506.086 178.305 C 507.079 178.453 508.862 179.685 508.782 181.965 C 508.67 185.156 505.772 186.452 502.154 186.326 L 500.302 186.261 C 499.048 186.218 498.492 186.626 498.467 187.338 C 498.441 188.079 498.97 188.469 500.223 188.512 L 504.07 188.647 C 508.03 188.785 509.507 190.605 509.434 192.714 C 509.341 195.364 506.988 197.392 501.232 197.191 C 495.363 196.986 493.94 195.254 494.01 193.259 Z M 497.387 192.949 C 497.336 194.402 498.88 195.112 501.388 195.2 C 503.895 195.287 505.63 194.606 505.681 193.153 C 505.734 191.643 504.207 191.247 501.614 191.157 C 498.936 191.063 497.441 191.382 497.387 192.949 Z M 498.811 181.559 C 498.744 183.497 500.429 184.24 501.911 184.292 L 502.054 184.297 C 503.564 184.35 505.297 183.726 505.365 181.788 C 505.436 179.737 503.749 179.05 502.239 178.997 L 502.096 178.993 C 500.615 178.941 498.883 179.508 498.811 181.559 Z" stroke-linecap="round"/>
</g>
		<g transform="matrix(1 0 0 1 -33.23 73.21)">
<rect style="stroke: none; stroke-width: 1; stroke-dasharray: none; stroke-linecap: butt; stroke-dashoffset: 0; stroke-linejoin: miter; stroke-miterlimit: 4; fill: rgb(240,253,244); fill-rule: nonzero; opacity: 1;" vector-effect="non-scaling-stroke" x="-107.825" y="-37.42" rx="16" ry="16" width="215.65" height="74.84"/>
</g>
		<g transform="matrix(1 0 0 1 -33.23 73.21)">
<rect style="stroke: rgb(23,156,72); stroke-width: 1; stroke-dasharray: none; stroke-linecap: butt; stroke-dashoffset: 0; stroke-linejoin: miter; stroke-miterlimit: 4; fill: none; fill-rule: nonzero; opacity: 1;" vector-effect="non-scaling-stroke" x="-107.825" y="-37.42" rx="16" ry="16" width="215.65" height="74.84"/>
</g>
		<g transform="matrix(1 0 0 1 -103.53 73.21)">
<rect style="stroke: none; stroke-width: 1; stroke-dasharray: none; stroke-linecap: butt; stroke-dashoffset: 0; stroke-linejoin: miter; stroke-miterlimit: 4; fill: rgb(34,197,94); fill-rule: nonzero; opacity: 1;" vector-effect="non-scaling-stroke" x="-27.62" y="-26.73" rx="8" ry="8" width="55.24" height="53.46"/>
</g>
		<g transform="matrix(1 0 0 1 -103.52 73.2)">
<rect style="stroke: rgb(23,156,72); stroke-width: 0.99; stroke-dasharray: none; stroke-linecap: butt; stroke-dashoffset: 0; stroke-linejoin: miter; stroke-miterlimit: 4; fill: none; fill-rule: nonzero; opacity: 1;" vector-effect="non-scaling-stroke" x="-27.62" y="-26.73" rx="8" ry="8" width="55.24" height="53.46"/>
</g>
		<g transform="matrix(1 0 0 1 -100.81 69.09)">
<path style="stroke: none; stroke-width: 1; stroke-dasharray: none; stroke-linecap: butt; stroke-dashoffset: 0; stroke-linejoin: miter; stroke-miterlimit: 4; fill: rgb(255,255,255); fill-rule: evenodd; opacity: 1;" vector-effect="non-scaling-stroke" transform=" translate(-147.55, -324.54)" d="M 137.444 319.55 C 135.879 319.97 134.949 321.579 135.369 323.145 L 137.7 331.846 C 138.12 333.411 139.729 334.341 141.295 333.921 L 157.66 329.536 C 159.226 329.117 160.155 327.507 159.735 325.941 L 157.404 317.241 C 156.984 315.675 155.375 314.746 153.809 315.165 L 137.444 319.55 Z M 155.695 322.361 C 155.483 321.568 154.667 321.097 153.873 321.309 L 151.957 321.823 C 151.164 322.035 150.693 322.851 150.905 323.645 C 151.118 324.439 151.934 324.91 152.727 324.697 L 154.643 324.183 C 155.437 323.971 155.908 323.155 155.695 322.361 Z" stroke-linecap="round"/>
</g>
		<g transform="matrix(1 0 0 1 -107.78 80.02)">
<path style="stroke: none; stroke-width: 1; stroke-dasharray: none; stroke-linecap: butt; stroke-dashoffset: 0; stroke-linejoin: miter; stroke-miterlimit: 4; fill: rgb(255,255,255); fill-rule: evenodd; opacity: 1;" vector-effect="non-scaling-stroke" transform=" translate(-140.57, -335.47)" d="M 134.422 328.034 L 132.103 328.034 C 130.482 328.034 129.167 329.348 129.167 330.969 L 129.167 331.01 L 135.222 331.01 C 135.083 330.509 134.939 329.968 134.782 329.385 C 134.654 328.906 134.534 328.457 134.422 328.034 Z M 136.144 333.893 L 129.167 333.893 L 129.167 339.976 C 129.167 341.597 130.482 342.911 132.103 342.911 L 149.045 342.911 C 150.666 342.911 151.98 341.597 151.98 339.976 L 151.98 333.893 L 151.78 333.893 C 151.391 333.999 150.979 334.109 150.542 334.226 L 145.505 335.576 C 141.543 336.637 139.562 337.168 137.994 336.282 C 137.971 336.269 137.949 336.256 137.926 336.243 C 137.136 335.777 136.61 335.034 136.144 333.893 Z M 134.673 337.952 C 135.469 337.952 136.115 338.597 136.115 339.393 C 136.115 340.19 135.469 340.835 134.673 340.835 L 132.597 340.835 C 131.801 340.835 131.155 340.19 131.155 339.393 C 131.155 338.597 131.801 337.952 132.597 337.952 L 134.673 337.952 Z" stroke-linecap="round"/>
</g>
		<g transform="matrix(1 0 0 1 -0.12 75.79)">
<path style="stroke: none; stroke-width: 1; stroke-dasharray: none; stroke-linecap: butt; stroke-dashoffset: 0; stroke-linejoin: miter; stroke-miterlimit: 4; fill: rgb(34,197,94); fill-rule: nonzero; opacity: 1;" vector-effect="non-scaling-stroke" transform=" translate(-248.25, -331.25)" d="M 189.483 338.658 L 189.483 318.701 L 197.694 318.701 C 202.142 318.701 205.079 321.267 205.079 325.344 C 205.079 329.507 202.142 332.016 197.694 332.016 L 192.962 332.016 L 192.962 338.658 L 189.483 338.658 Z M 192.962 329.222 L 197.21 329.222 C 199.633 329.222 201.458 328.053 201.458 325.344 C 201.458 322.693 199.633 321.495 197.21 321.495 L 192.962 321.495 L 192.962 329.222 Z M 211.675 339.001 C 208.796 339.001 207.142 337.347 207.142 334.867 C 207.142 332.044 209.195 330.818 212.132 330.619 L 216.693 330.305 L 216.693 329.735 C 216.693 327.796 215.724 326.57 213.671 326.57 C 211.733 326.57 210.478 327.539 210.478 329.079 L 206.971 329.079 C 206.971 326 209.537 323.947 213.785 323.947 C 217.663 323.947 220.057 325.772 220.057 329.336 L 220.057 334.553 C 220.057 335.522 220.428 335.95 221.397 335.95 L 222.025 335.95 L 222.025 338.658 L 220.257 338.658 C 218.062 338.658 216.893 337.689 216.893 335.836 L 216.893 335.608 L 216.75 335.608 C 216.294 337.147 214.726 339.001 211.675 339.001 Z M 210.592 334.61 C 210.592 335.693 211.305 336.634 213.13 336.634 C 215.097 336.634 216.722 335.266 216.75 332.301 L 213.415 332.557 C 211.476 332.7 210.592 333.327 210.592 334.61 Z M 223.934 343.79 L 223.934 340.968 L 226.043 340.968 C 227.783 340.968 228.096 340.255 228.638 338.83 L 228.923 337.974 L 222.907 324.403 L 226.528 324.403 L 230.634 334.325 L 230.776 334.325 L 234.397 324.403 L 237.989 324.403 L 231.774 339.827 C 230.634 342.621 229.579 343.79 226.5 343.79 L 223.934 343.79 Z M 240.397 338.658 L 240.397 324.403 L 243.733 324.403 L 243.676 327.768 L 243.818 327.768 C 244.36 325.886 245.671 323.976 248.323 323.976 C 250.746 323.976 252.058 325.629 252.343 327.882 L 252.514 327.882 C 252.856 326.057 254.51 323.976 256.904 323.976 C 260.069 323.976 261.352 326.257 261.352 329.934 L 261.352 338.658 L 258.016 338.658 L 258.016 330.419 C 258.016 328.081 257.247 326.77 255.564 326.77 C 253.768 326.77 252.571 328.395 252.571 330.733 L 252.571 338.658 L 249.178 338.658 L 249.178 330.419 C 249.178 328.081 248.408 326.77 246.783 326.77 C 244.873 326.77 243.733 328.509 243.733 330.847 L 243.733 338.658 L 240.397 338.658 Z M 271.51 339.086 C 267.576 339.086 264.326 336.492 264.326 331.531 C 264.326 326.884 267.319 323.976 271.624 323.976 C 275.758 323.976 278.723 326.456 278.723 331.132 C 278.723 331.645 278.695 332.016 278.638 332.301 L 267.547 332.301 C 267.661 335.066 269.401 336.492 271.681 336.492 C 273.42 336.492 274.789 335.693 275.245 334.011 L 278.524 334.011 C 277.982 337.375 275.16 339.086 271.51 339.086 Z M 267.633 330.276 L 275.331 330.276 C 275.331 327.996 273.848 326.428 271.539 326.428 C 269.286 326.428 267.775 328.024 267.633 330.276 Z M 281.77 338.658 L 281.77 324.403 L 285.106 324.403 L 285.049 328.053 L 285.191 328.053 C 285.59 325.857 287.501 323.976 289.981 323.976 C 293.402 323.976 294.913 326.114 294.913 330.02 L 294.913 338.658 L 291.549 338.658 L 291.549 330.448 C 291.549 328.024 290.466 326.741 288.527 326.741 C 286.389 326.741 285.106 328.936 285.106 331.189 L 285.106 338.658 L 281.77 338.658 Z M 303.792 338.658 C 301.169 338.658 299.629 337.347 299.629 334.696 L 299.629 326.941 L 296.607 326.941 L 296.607 324.403 L 299.629 324.403 L 299.629 320.412 L 302.965 320.412 L 302.965 324.403 L 307.013 324.403 L 307.013 326.941 L 302.965 326.941 L 302.965 334.125 C 302.965 335.237 303.563 335.864 304.647 335.864 L 307.013 335.864 L 307.013 338.658 L 303.792 338.658 Z" stroke-linecap="round"/>
</g>
		<g transform="matrix(1 0 0 1 37.19 110.41)">
<rect style="stroke: none; stroke-width: 1; stroke-dasharray: none; stroke-linecap: butt; stroke-dashoffset: 0; stroke-linejoin: miter; stroke-miterlimit: 4; fill: rgb(34,197,94); fill-rule: nonzero; opacity: 1;" vector-effect="non-scaling-stroke" x="-54.925" y="-9.975" rx="9.9454" ry="9.9454" width="109.85" height="19.95"/>
</g>
		<g transform="matrix(1 0 0 1 30.33 110.53)">
<path style="stroke: none; stroke-width: 1; stroke-dasharray: none; stroke-linecap: butt; stroke-dashoffset: 0; stroke-linejoin: miter; stroke-miterlimit: 4; fill: rgb(255,255,255); fill-rule: nonzero; opacity: 1;" vector-effect="non-scaling-stroke" transform=" translate(-278.69, -365.98)" d="M 237.741 370.857 L 241.611 361.111 L 243.63 361.111 L 247.515 370.857 L 245.677 370.857 L 244.716 368.323 L 240.525 368.323 L 239.551 370.857 L 237.741 370.857 Z M 240.985 367 L 244.257 367 L 242.656 362.726 L 242.586 362.726 L 240.985 367 Z M 249.473 370.857 L 249.473 361.111 L 253.483 361.111 C 255.655 361.111 257.089 362.364 257.089 364.355 C 257.089 366.388 255.655 367.613 253.483 367.613 L 251.172 367.613 L 251.172 370.857 L 249.473 370.857 Z M 251.172 366.248 L 253.246 366.248 C 254.43 366.248 255.321 365.678 255.321 364.355 C 255.321 363.06 254.43 362.475 253.246 362.475 L 251.172 362.475 L 251.172 366.248 Z M 259.402 370.857 L 259.402 361.111 L 263.412 361.111 C 265.584 361.111 267.018 362.364 267.018 364.355 C 267.018 366.388 265.584 367.613 263.412 367.613 L 261.1 367.613 L 261.1 370.857 L 259.402 370.857 Z M 261.1 366.248 L 263.175 366.248 C 264.358 366.248 265.25 365.678 265.25 364.355 C 265.25 363.06 264.358 362.475 263.175 362.475 L 261.1 362.475 L 261.1 366.248 Z M 269.33 370.857 L 269.33 361.111 L 273.577 361.111 C 275.707 361.111 276.891 362.252 276.891 363.895 C 276.891 365.316 275.777 366.221 274.58 366.276 L 274.58 366.346 C 275.958 366.443 276.529 367.279 276.654 368.546 C 276.793 369.827 276.877 370.467 277.03 370.857 L 275.276 370.857 C 275.164 370.593 275.039 370.064 274.914 368.852 C 274.816 367.794 274.468 367.251 273.299 367.251 L 271.029 367.251 L 271.029 370.857 L 269.33 370.857 Z M 271.029 365.928 L 273.104 365.928 C 274.204 365.928 275.15 365.371 275.15 364.146 C 275.15 362.976 274.245 362.475 273.145 362.475 L 271.029 362.475 L 271.029 365.928 Z M 283.822 371.066 C 280.94 371.066 278.949 368.991 278.949 365.984 C 278.949 362.976 280.94 360.902 283.822 360.902 C 286.705 360.902 288.696 362.976 288.696 365.984 C 288.696 368.991 286.705 371.066 283.822 371.066 Z M 280.745 365.984 C 280.745 368.086 281.859 369.521 283.809 369.521 C 285.786 369.521 286.886 368.086 286.886 365.984 C 286.886 363.881 285.786 362.447 283.822 362.447 C 281.859 362.447 280.745 363.881 280.745 365.984 Z M 293.568 370.857 L 289.739 361.111 L 291.577 361.111 L 294.598 369.214 L 297.619 361.111 L 299.457 361.111 L 295.614 370.857 L 293.568 370.857 Z M 301.523 370.857 L 301.523 361.111 L 308.499 361.111 L 308.499 362.517 L 303.222 362.517 L 303.222 365.204 L 307.858 365.204 L 307.858 366.569 L 303.222 366.569 L 303.222 369.437 L 308.694 369.437 L 308.694 370.857 L 301.523 370.857 Z M 311.234 370.857 L 311.234 361.111 L 314.882 361.111 C 317.89 361.111 319.644 363.032 319.644 365.984 C 319.644 369.59 317.138 370.857 314.882 370.857 L 311.234 370.857 Z M 312.933 369.479 L 314.604 369.479 C 316.289 369.479 317.904 368.602 317.904 365.984 C 317.904 363.394 316.289 362.489 314.604 362.489 L 312.933 362.489 L 312.933 369.479 Z" stroke-linecap="round"/>
</g>
		<g transform="matrix(1 0 0 1 80.18 110.4)">
<path style="stroke: none; stroke-width: 1; stroke-dasharray: none; stroke-linecap: butt; stroke-dashoffset: 0; stroke-linejoin: miter; stroke-miterlimit: 4; fill: rgb(255,255,255); fill-rule: nonzero; opacity: 1;" vector-effect="non-scaling-stroke" transform=" translate(-328.54, -365.86)" d="M 332.314 361.988 C 332.262 362.024 332.21 362.077 332.107 362.184 L 326.965 367.484 C 326.817 367.637 326.743 367.713 326.651 367.713 C 326.559 367.713 326.485 367.637 326.337 367.484 L 324.98 366.086 C 324.877 365.979 324.825 365.926 324.773 365.89 C 324.562 365.744 324.285 365.744 324.073 365.89 C 324.022 365.926 323.97 365.979 323.867 366.086 C 323.763 366.193 323.711 366.246 323.677 366.299 C 323.535 366.517 323.535 366.802 323.677 367.021 C 323.711 367.074 323.763 367.127 323.867 367.234 L 325.992 369.425 C 326.019 369.454 326.052 369.488 326.094 369.53 C 326.197 369.637 326.249 369.69 326.3 369.726 C 326.512 369.872 326.788 369.872 327 369.726 C 327.052 369.69 327.104 369.637 327.207 369.53 L 333.22 363.332 C 333.324 363.225 333.376 363.172 333.41 363.119 C 333.552 362.9 333.552 362.615 333.41 362.397 C 333.376 362.344 333.324 362.291 333.22 362.184 C 333.117 362.077 333.065 362.024 333.014 361.988 C 332.802 361.842 332.525 361.842 332.314 361.988 Z" stroke-linecap="round"/>
</g>
		<g transform="matrix(1 0 0 1 -103.55 -85.52)">
<rect style="stroke: none; stroke-width: 1; stroke-dasharray: none; stroke-linecap: butt; stroke-dashoffset: 0; stroke-linejoin: miter; stroke-miterlimit: 4; fill: rgb(140,59,243); fill-rule: nonzero; opacity: 1;" vector-effect="non-scaling-stroke" x="-47.46" y="-9.975" rx="9.9454" ry="9.9454" width="94.92" height="19.95"/>
</g>
		<g transform="matrix(1 0 0 1 -103.85 -85.33)">
<path style="stroke: none; stroke-width: 1; stroke-dasharray: none; stroke-linecap: butt; stroke-dashoffset: 0; stroke-linejoin: miter; stroke-miterlimit: 4; fill: rgb(255,255,255); fill-rule: nonzero; opacity: 1;" vector-effect="non-scaling-stroke" transform=" translate(-144.51, -170.13)" d="M 112.362 174.319 C 111.833 174.792 110.816 175.14 109.8 175.14 C 106.918 175.14 104.968 173.066 104.968 170.058 C 104.968 167.051 106.918 164.976 109.8 164.976 C 112.682 164.976 114.631 167.051 114.631 170.058 C 114.631 171.45 114.144 172.634 113.42 173.428 L 115.146 175.279 L 113.295 175.279 L 112.362 174.319 Z M 106.778 170.058 C 106.778 172.16 107.837 173.595 109.8 173.595 C 110.371 173.595 110.886 173.455 111.276 173.191 L 109.326 171.116 L 111.15 171.116 L 112.278 172.272 C 112.64 171.701 112.807 170.921 112.807 170.058 C 112.807 167.956 111.763 166.521 109.8 166.521 C 107.837 166.521 106.778 167.956 106.778 170.058 Z M 121.321 175.14 C 119.121 175.14 117.353 173.998 117.353 171.297 L 117.353 165.185 L 119.066 165.185 L 119.066 171.102 C 119.066 172.606 119.72 173.692 121.321 173.692 C 122.922 173.692 123.591 172.606 123.591 171.102 L 123.591 165.185 L 125.289 165.185 L 125.289 171.297 C 125.289 173.998 123.535 175.14 121.321 175.14 Z M 126.677 174.931 L 130.548 165.185 L 132.567 165.185 L 136.451 174.931 L 134.613 174.931 L 133.653 172.397 L 129.462 172.397 L 128.487 174.931 L 126.677 174.931 Z M 129.921 171.074 L 133.193 171.074 L 131.592 166.8 L 131.522 166.8 L 129.921 171.074 Z M 138.409 174.931 L 138.409 165.185 L 140.108 165.185 L 140.108 173.525 L 145.134 173.525 L 145.134 174.931 L 138.409 174.931 Z M 147.373 174.931 L 147.373 165.185 L 149.085 165.185 L 149.085 174.931 L 147.373 174.931 Z M 152.012 174.931 L 152.012 165.185 L 158.974 165.185 L 158.974 166.591 L 153.711 166.591 L 153.711 169.431 L 158.403 169.431 L 158.403 170.838 L 153.711 170.838 L 153.711 174.931 L 152.012 174.931 Z M 161.288 174.931 L 161.288 165.185 L 163.001 165.185 L 163.001 174.931 L 161.288 174.931 Z M 165.927 174.931 L 165.927 165.185 L 172.903 165.185 L 172.903 166.591 L 167.626 166.591 L 167.626 169.278 L 172.263 169.278 L 172.263 170.643 L 167.626 170.643 L 167.626 173.511 L 173.098 173.511 L 173.098 174.931 L 165.927 174.931 Z M 175.638 174.931 L 175.638 165.185 L 179.286 165.185 C 182.294 165.185 184.048 167.106 184.048 170.058 C 184.048 173.664 181.542 174.931 179.286 174.931 L 175.638 174.931 Z M 177.337 173.553 L 179.008 173.553 C 180.693 173.553 182.308 172.676 182.308 170.058 C 182.308 167.468 180.693 166.563 179.008 166.563 L 177.337 166.563 L 177.337 173.553 Z" stroke-linecap="round"/>
</g>
</g>
</g>
<g transform="matrix(1 0 0 1 532.57 267)">
<g style="" vector-effect="non-scaling-stroke">
		<g transform="matrix(1 -0.07 0.07 1 0 0)">
<rect style="stroke: none; stroke-width: 1; stroke-dasharray: none; stroke-linecap: butt; stroke-dashoffset: 0; stroke-linejoin: miter; stroke-miterlimit: 4; fill: rgb(228,221,253); fill-rule: nonzero; opacity: 1;" vector-effect="non-scaling-stroke" x="-117.825" y="-37.42" rx="16" ry="16" width="235.65" height="74.84"/>
</g>
		<g transform="matrix(1 -0.07 0.07 1 0 0)">
<rect style="stroke: rgb(169,108,246); stroke-width: 1; stroke-dasharray: none; stroke-linecap: butt; stroke-dashoffset: 0; stroke-linejoin: miter; stroke-miterlimit: 4; fill: none; fill-rule: nonzero; opacity: 1;" vector-effect="non-scaling-stroke" x="-117.825" y="-37.42" rx="16" ry="16" width="235.65" height="74.84"/>
</g>
		<g transform="matrix(1 -0.07 0.07 1 -80.1 5.6)">
<rect style="stroke: none; stroke-width: 1; stroke-dasharray: none; stroke-linecap: butt; stroke-dashoffset: 0; stroke-linejoin: miter; stroke-miterlimit: 4; fill: rgb(140,59,243); fill-rule: nonzero; opacity: 1;" vector-effect="non-scaling-stroke" x="-27.62" y="-26.73" rx="8" ry="8" width="55.24" height="53.46"/>
</g>
		<g transform="matrix(1 -0.07 0.07 1 -80.1 5.6)">
<rect style="stroke: rgb(169,108,246); stroke-width: 0.99; stroke-dasharray: none; stroke-linecap: butt; stroke-dashoffset: 0; stroke-linejoin: miter; stroke-miterlimit: 4; fill: none; fill-rule: nonzero; opacity: 1;" vector-effect="non-scaling-stroke" x="-27.62" y="-26.73" rx="8" ry="8" width="55.24" height="53.46"/>
</g>
		<g transform="matrix(1 0 0 1 -80.53 0.83)">
<path style="stroke: none; stroke-width: 1; stroke-dasharray: none; stroke-linecap: butt; stroke-dashoffset: 0; stroke-linejoin: miter; stroke-miterlimit: 4; fill: rgb(255,255,255); fill-rule: nonzero; opacity: 1;" vector-effect="non-scaling-stroke" transform=" translate(-47.42, -54.08)" d="M 35.7349 53.6653 L 47.8266 58.6892 L 59.1015 52.0313 C 59.0061 51.2899 58.631 50.613 58.0528 50.1392 C 57.4746 49.6654 56.7371 49.4306 55.9915 49.4829 L 38.46 50.7088 C 37.7143 50.7608 37.0167 51.096 36.5101 51.6456 C 36.0035 52.1953 35.7261 52.9178 35.7349 53.6653 Z" stroke-linecap="round"/>
</g>
		<g transform="matrix(1 0 0 1 -79.99 8.51)">
<path style="stroke: none; stroke-width: 1; stroke-dasharray: none; stroke-linecap: butt; stroke-dashoffset: 0; stroke-linejoin: miter; stroke-miterlimit: 4; fill: rgb(255,255,255); fill-rule: nonzero; opacity: 1;" vector-effect="non-scaling-stroke" transform=" translate(-47.95, -61.77)" d="M 59.3372 55.2941 L 48.0582 61.9552 L 35.9619 56.9286 L 36.5628 65.522 C 36.617 66.2969 36.9768 67.0186 37.5631 67.5282 C 38.1494 68.0379 38.9141 68.2938 39.689 68.2396 L 57.2205 67.0137 C 57.9954 66.9595 58.7171 66.5997 59.2268 66.0134 C 59.7364 65.4271 59.9923 64.6624 59.9381 63.8874 L 59.3372 55.2941 Z" stroke-linecap="round"/>
</g>
		<g transform="matrix(1 0 0 1 32.89 -1.28)">
<path style="stroke: none; stroke-width: 1; stroke-dasharray: none; stroke-linecap: butt; stroke-dashoffset: 0; stroke-linejoin: miter; stroke-miterlimit: 4; fill: rgb(140,59,243); fill-rule: nonzero; opacity: 1;" vector-effect="non-scaling-stroke" transform=" translate(-160.84, -51.98)" d="M 93.083 65.722 L 91.6908 45.8135 L 105.94 44.8171 L 106.141 47.6896 L 95.3615 48.4434 L 95.7453 53.9324 L 105.216 53.2702 L 105.411 56.0574 L 95.9402 56.7196 L 96.3499 62.5784 L 107.527 61.7968 L 107.73 64.6978 L 93.083 65.722 Z M 111.099 64.4622 L 110.105 50.2418 L 113.432 50.0091 L 113.61 53.3691 L 113.752 53.3592 C 114.161 51.4443 115.336 49.4473 117.981 49.2623 C 120.399 49.0933 121.822 50.6514 122.264 52.8783 L 122.435 52.8664 C 122.649 51.0223 124.153 48.8308 126.542 48.6637 C 129.699 48.443 131.138 50.6287 131.394 54.2976 L 132.003 63.0004 L 128.675 63.2331 L 128.101 55.0138 C 127.938 52.6816 127.078 51.427 125.4 51.5444 C 123.608 51.6697 122.527 53.3743 122.69 55.7065 L 123.243 63.613 L 119.859 63.8496 L 119.284 55.6303 C 119.121 53.2981 118.262 52.0436 116.64 52.1569 C 114.735 52.2902 113.719 54.1046 113.882 56.4367 L 114.427 64.2295 L 111.099 64.4622 Z M 139.686 62.8061 C 136.814 63.007 135.049 61.4728 134.876 58.9985 C 134.679 56.1828 136.641 54.8167 139.556 54.4128 L 144.085 53.7817 L 144.045 53.2129 C 143.91 51.2789 142.858 50.1236 140.81 50.2668 C 138.876 50.402 137.692 51.4565 137.799 52.9923 L 134.301 53.2369 C 134.086 50.1653 136.503 47.9386 140.741 47.6423 C 144.609 47.3718 147.125 49.025 147.373 52.58 L 147.737 57.7847 C 147.805 58.7517 148.205 59.1524 149.172 59.0848 L 149.797 59.0411 L 149.986 61.7429 L 148.223 61.8662 C 146.033 62.0194 144.799 61.1339 144.67 59.2853 L 144.654 59.0578 L 144.512 59.0677 C 144.164 60.6353 142.729 62.5933 139.686 62.8061 Z M 138.299 58.5018 C 138.375 59.5826 139.151 60.4714 140.971 60.3441 C 142.934 60.2069 144.46 58.7284 144.281 55.7686 L 140.971 56.2572 C 139.047 56.5347 138.21 57.222 138.299 58.5018 Z M 152.145 61.592 L 151.151 47.3716 L 154.507 47.1369 L 155.501 61.3573 L 152.145 61.592 Z M 151.012 45.3808 L 150.753 41.6835 L 154.109 41.4488 L 154.368 45.1461 L 151.012 45.3808 Z M 162.961 60.8357 C 160.344 61.0186 158.887 59.8058 158.703 57.1608 L 157.587 41.2056 L 160.886 40.9749 L 161.962 56.3613 C 162.039 57.4705 162.51 58.0664 163.647 57.9868 L 164.558 57.9232 L 164.752 60.7104 L 162.961 60.8357 Z M 178.577 60.1724 C 174.766 60.4389 172.355 59.0642 172.108 55.5375 L 175.549 55.2969 C 175.657 56.8327 176.679 57.9616 178.527 57.8323 C 180.234 57.713 181.066 56.9403 180.99 55.8595 C 180.913 54.7504 180.078 54.2657 178.525 54.1171 L 177.085 53.9606 C 174.319 53.6396 172.519 52.4222 172.35 50.0047 C 172.149 47.1322 174.337 45.3216 178.006 45.065 C 181.874 44.7945 184.085 46.5833 184.335 49.7382 L 180.893 49.9789 C 180.79 48.5 179.849 47.3082 178.086 47.4315 C 176.465 47.5449 175.553 48.4089 175.631 49.5181 C 175.707 50.5988 176.512 51.0855 178.096 51.2605 L 179.536 51.417 C 182.532 51.7506 184.208 52.8337 184.391 55.4503 C 184.58 58.1521 182.302 59.9119 178.577 60.1724 Z M 194.604 59.0517 C 190.679 59.3261 187.256 56.9647 186.91 52.016 C 186.586 47.3802 189.369 44.2704 193.664 43.9701 C 197.788 43.6818 200.918 45.9493 201.245 50.6135 C 201.28 51.1255 201.278 51.4972 201.241 51.7856 L 190.177 52.5592 C 190.484 55.31 192.318 56.6107 194.594 56.4516 C 196.328 56.3303 197.638 55.4385 197.976 53.7287 L 201.246 53.5 C 200.941 56.8938 198.244 58.7971 194.604 59.0517 Z M 190.121 50.5339 L 197.8 49.997 C 197.641 47.7217 196.053 46.2609 193.749 46.422 C 191.503 46.5791 190.107 48.2772 190.121 50.5339 Z M 204.809 57.9093 L 203.815 43.689 L 207.142 43.4563 L 207.34 47.1007 L 207.482 47.0908 C 207.727 44.873 209.501 42.8626 211.976 42.6896 C 215.389 42.451 217.045 44.4786 217.318 48.375 L 217.92 56.9925 L 214.564 57.2272 L 213.991 49.0363 C 213.822 46.6188 212.652 45.4146 210.718 45.5498 C 208.585 45.699 207.458 47.9784 207.615 50.2252 L 208.137 57.6767 L 204.809 57.9093 Z M 226.777 56.3732 C 224.16 56.5562 222.533 55.3553 222.348 52.7103 L 221.807 44.9744 L 218.792 45.1853 L 218.615 42.654 L 221.63 42.4432 L 221.352 38.4615 L 224.679 38.2288 L 224.958 42.2105 L 228.996 41.9281 L 229.173 44.4594 L 225.135 44.7418 L 225.636 51.9088 C 225.713 53.018 226.354 53.6019 227.435 53.5264 L 229.796 53.3613 L 229.991 56.1485 L 226.777 56.3732 Z" stroke-linecap="round"/>
</g>
</g>
</g>
</svg>