<svg xmlns="http://www.w3.org/2000/svg" version="1.1" viewBox="0 0 400 319" xml:space="preserve">
  <g transform="matrix(1 0 0 1 223 159.5)">
    <g style="" vector-effect="non-scaling-stroke">
      <g transform="matrix(1 0 0 1 82.25 -35.99)">
        <path style="stroke: none; strokeWidth: 1; stroke-dasharray: none; stroke-linecap: butt; stroke-dashoffset: 0; stroke-linejoin: miter; stroke-miterlimit: 4; fill: rgb(183,187,190); fillRule: nonzero; opacity: 1;" vector-effect="non-scaling-stroke" transform=" translate(-240.5, -119.09)" d="M 169.5 194.921 L 178.147 189.929 L 178.147 199.914 L 169.5 194.921 Z M 299.098 237.865 L 284.774 237.865 L 284.774 236.135 L 299.098 236.135 L 299.098 237.865 Z M 272.38 225.47 L 272.38 206.451 L 274.11 206.451 L 274.11 225.47 L 272.38 225.47 Z M 261.715 195.786 L 177.282 195.786 L 177.282 194.057 L 261.715 194.057 L 261.715 195.786 Z M 309.763 225.47 L 309.763 0.307373 L 311.493 0.307373 L 311.493 225.47 L 309.763 225.47 Z M 272.38 206.451 C 272.38 200.561 267.605 195.786 261.715 195.786 L 261.715 194.057 C 268.56 194.057 274.11 199.606 274.11 206.451 L 272.38 206.451 Z M 284.774 237.865 C 277.929 237.865 272.38 232.316 272.38 225.47 L 274.11 225.47 C 274.11 231.36 278.884 236.135 284.774 236.135 L 284.774 237.865 Z M 299.098 236.135 C 304.988 236.135 309.763 231.36 309.763 225.47 L 311.493 225.47 C 311.493 232.316 305.943 237.865 299.098 237.865 L 299.098 236.135 Z" stroke-linecap="round"/>
      </g>
      <g transform="matrix(1 0 0 1 45.26 104.48)">
        <path style="stroke: none; strokeWidth: 1; stroke-dasharray: none; stroke-linecap: butt; stroke-dashoffset: 0; stroke-linejoin: miter; stroke-miterlimit: 4; fill: rgb(183,187,190); fillRule: nonzero; opacity: 1;" vector-effect="non-scaling-stroke" transform=" translate(-203.5, -259.56)" d="M 115 278 L 123.647 282.993 L 123.647 273.007 L 115 278 Z M 292 236.135 L 290.194 236.135 L 290.194 237.865 L 292 237.865 L 292 236.135 Z M 286.581 236.135 L 284.775 236.135 L 284.775 237.865 L 286.581 237.865 L 286.581 236.135 Z M 284.775 236.135 C 283.948 236.135 283.139 236.216 282.357 236.371 L 282.692 238.068 C 283.365 237.935 284.061 237.865 284.775 237.865 L 284.775 236.135 Z M 277.888 238.223 C 276.536 239.128 275.373 240.291 274.468 241.643 L 275.906 242.605 C 276.684 241.441 277.686 240.439 278.85 239.661 L 277.888 238.223 Z M 272.616 246.112 C 272.461 246.894 272.38 247.703 272.38 248.53 L 274.11 248.53 C 274.11 247.816 274.18 247.12 274.313 246.447 L 272.616 246.112 Z M 272.38 248.53 L 272.38 250.772 L 274.11 250.772 L 274.11 248.53 L 272.38 248.53 Z M 272.38 255.257 L 272.38 259.743 L 274.11 259.743 L 274.11 255.257 L 272.38 255.257 Z M 272.38 264.228 L 272.38 266.47 L 274.11 266.47 L 274.11 264.228 L 272.38 264.228 Z M 272.38 266.47 C 272.38 267.184 272.31 267.88 272.177 268.553 L 273.874 268.888 C 274.029 268.106 274.11 267.297 274.11 266.47 L 272.38 266.47 Z M 270.584 272.395 C 269.806 273.559 268.804 274.561 267.64 275.339 L 268.602 276.777 C 269.954 275.872 271.117 274.709 272.022 273.357 L 270.584 272.395 Z M 263.798 276.932 C 263.125 277.065 262.429 277.135 261.715 277.135 L 261.715 278.865 C 262.542 278.865 263.351 278.784 264.133 278.629 L 263.798 276.932 Z M 261.715 277.135 L 259.423 277.135 L 259.423 278.865 L 261.715 278.865 L 261.715 277.135 Z M 254.838 277.135 L 250.253 277.135 L 250.253 278.865 L 254.838 278.865 L 254.838 277.135 Z M 245.668 277.135 L 241.083 277.135 L 241.083 278.865 L 245.668 278.865 L 245.668 277.135 Z M 236.499 277.135 L 231.914 277.135 L 231.914 278.865 L 236.499 278.865 L 236.499 277.135 Z M 227.329 277.135 L 222.744 277.135 L 222.744 278.865 L 227.329 278.865 L 227.329 277.135 Z M 218.159 277.135 L 213.574 277.135 L 213.574 278.865 L 218.159 278.865 L 218.159 277.135 Z M 208.989 277.135 L 204.405 277.135 L 204.405 278.865 L 208.989 278.865 L 208.989 277.135 Z M 199.82 277.135 L 195.235 277.135 L 195.235 278.865 L 199.82 278.865 L 199.82 277.135 Z M 190.65 277.135 L 186.065 277.135 L 186.065 278.865 L 190.65 278.865 L 190.65 277.135 Z M 181.48 277.135 L 176.895 277.135 L 176.895 278.865 L 181.48 278.865 L 181.48 277.135 Z M 172.311 277.135 L 167.726 277.135 L 167.726 278.865 L 172.311 278.865 L 172.311 277.135 Z M 163.141 277.135 L 158.556 277.135 L 158.556 278.865 L 163.141 278.865 L 163.141 277.135 Z M 153.971 277.135 L 149.386 277.135 L 149.386 278.865 L 153.971 278.865 L 153.971 277.135 Z M 144.801 277.135 L 140.217 277.135 L 140.217 278.865 L 144.801 278.865 L 144.801 277.135 Z M 135.632 277.135 L 131.047 277.135 L 131.047 278.865 L 135.632 278.865 L 135.632 277.135 Z M 126.462 277.135 L 121.877 277.135 L 121.877 278.865 L 126.462 278.865 L 126.462 277.135 Z" stroke-linecap="round"/>
      </g>
      <g transform="matrix(1 0.03 -0.03 1 -70.38 39.57)">
        <rect style="stroke: none; strokeWidth: 1; stroke-dasharray: none; stroke-linecap: butt; stroke-dashoffset: 0; stroke-linejoin: miter; stroke-miterlimit: 4; fill: rgb(252,231,226); fillRule: nonzero; opacity: 1;" vector-effect="non-scaling-stroke" x="-82.143" y="-21.69025" rx="9.27439" ry="9.27439" width="164.286" height="43.3805"/>
      </g>
      <g transform="matrix(1 0.03 -0.03 1 -70.38 39.57)">
        <rect style="stroke: rgb(223,40,0); strokeWidth: 1; stroke-dasharray: none; stroke-linecap: butt; stroke-dashoffset: 0; stroke-linejoin: miter; stroke-miterlimit: 4; fill: none; fillRule: nonzero; opacity: 1;" vector-effect="non-scaling-stroke" x="-82.143" y="-21.69025" rx="9.27439" ry="9.27439" width="164.286" height="43.3805"/>
      </g>
      <g transform="matrix(1 0.03 -0.03 1 -130.53 37.47)">
        <rect style="stroke: none; strokeWidth: 1; stroke-dasharray: none; stroke-linecap: butt; stroke-dashoffset: 0; stroke-linejoin: miter; stroke-miterlimit: 4; fill: rgb(247,80,43); fillRule: nonzero; opacity: 1;" vector-effect="non-scaling-stroke" x="-16.00945" y="-15.49305" rx="4.6372" ry="4.6372" width="32.0189" height="30.9861"/>
      </g>
      <g transform="matrix(1 0.03 -0.03 1 -130.53 37.47)">
        <rect style="stroke: rgb(223,40,0); strokeWidth: 0.576485; stroke-dasharray: none; stroke-linecap: butt; stroke-dashoffset: 0; stroke-linejoin: miter; stroke-miterlimit: 4; fill: none; fillRule: nonzero; opacity: 1;" vector-effect="non-scaling-stroke" x="-16.00945" y="-15.49305" rx="4.6372" ry="4.6372" width="32.0189" height="30.9861"/>
      </g>
      <g transform="matrix(1 0 0 1 -130.56 37.49)">
        <path style="stroke: none; strokeWidth: 1; stroke-dasharray: none; stroke-linecap: butt; stroke-dashoffset: 0; stroke-linejoin: miter; stroke-miterlimit: 4; fill: rgb(255,255,255); fillRule: evenodd; opacity: 1;" vector-effect="non-scaling-stroke" transform=" translate(-27.68, -192.57)" d="M 30.6781 186.682 C 30.6654 187.048 30.3589 187.333 29.9936 187.321 L 25.9798 187.181 C 25.6143 187.168 25.3284 186.861 25.3412 186.496 C 25.3618 185.906 24.9006 185.412 24.3111 185.391 C 23.7215 185.37 23.2269 185.832 23.2064 186.421 C 23.1934 186.791 22.8859 187.077 22.5161 187.088 C 21.7464 187.109 21.2514 187.222 20.8849 187.564 C 20.5204 187.904 20.3724 188.386 20.2972 189.145 C 20.2953 189.164 20.3101 189.18 20.3288 189.181 L 35.1872 189.7 C 35.2717 189.703 35.3514 189.639 35.3478 189.555 C 35.3175 188.858 35.1983 188.398 34.876 188.052 C 34.5611 187.715 34.1237 187.563 33.4572 187.483 C 33.0874 187.438 32.8 187.129 32.813 186.757 C 32.8336 186.167 32.3723 185.673 31.7828 185.652 C 31.1933 185.632 30.6987 186.093 30.6781 186.682 Z M 35.2701 191.294 C 35.2979 191.29 35.3235 191.312 35.3225 191.34 L 35.1592 196.017 C 35.0962 197.822 35.0647 198.724 34.4845 199.265 C 33.9043 199.806 33.002 199.775 31.1974 199.712 L 23.7412 199.451 C 21.9366 199.388 21.0344 199.357 20.4933 198.777 C 19.9523 198.196 19.9838 197.294 20.0468 195.49 L 20.2102 190.812 C 20.2108 190.793 20.227 190.779 20.2454 190.781 C 20.2545 190.781 20.2637 190.782 20.2729 190.782 L 35.1312 191.301 C 35.1785 191.303 35.2249 191.3 35.2701 191.294 Z M 24.3875 192.516 C 24.8863 192.534 25.2765 192.952 25.2591 193.451 C 25.2417 193.95 24.8232 194.34 24.3244 194.323 L 23.3765 194.29 C 22.8777 194.272 22.4875 193.854 22.5049 193.355 C 22.5223 192.856 22.9408 192.466 23.4396 192.483 L 24.3875 192.516 Z M 28.995 193.582 C 29.0124 193.083 28.6222 192.665 28.1234 192.647 L 27.1755 192.614 C 26.6767 192.597 26.2582 192.987 26.2408 193.486 C 26.2234 193.985 26.6136 194.403 27.1124 194.421 L 28.0603 194.454 C 28.5591 194.471 28.9776 194.081 28.995 193.582 Z M 31.8568 192.777 C 32.3556 192.795 32.7459 193.213 32.7285 193.712 C 32.711 194.211 32.2926 194.601 31.7938 194.584 L 30.8458 194.55 C 30.347 194.533 29.9568 194.115 29.9742 193.616 C 29.9916 193.117 30.4101 192.727 30.9089 192.744 L 31.8568 192.777 Z M 25.1544 196.46 C 25.1718 195.961 24.7816 195.543 24.2828 195.525 L 23.3349 195.492 C 22.8361 195.475 22.4176 195.865 22.4002 196.364 C 22.3828 196.863 22.773 197.281 23.2718 197.298 L 24.2197 197.332 C 24.7185 197.349 25.137 196.959 25.1544 196.46 Z M 28.0187 195.655 C 28.5175 195.673 28.9077 196.091 28.8903 196.59 C 28.8729 197.089 28.4544 197.479 27.9556 197.461 L 27.0077 197.428 C 26.5089 197.411 26.1187 196.992 26.1361 196.494 C 26.1535 195.995 26.572 195.605 27.0708 195.622 L 28.0187 195.655 Z M 32.6238 196.72 C 32.6412 196.221 32.2509 195.803 31.7521 195.786 L 30.8042 195.752 C 30.3054 195.735 29.8869 196.125 29.8695 196.624 C 29.8521 197.123 30.2423 197.541 30.7411 197.559 L 31.6891 197.592 C 32.1879 197.609 32.6063 197.219 32.6238 196.72 Z" stroke-linecap="round"/>
      </g>
      <g transform="matrix(1 0 0 1 -51.58 42.02)">
        <path style="stroke: none; strokeWidth: 1; stroke-dasharray: none; stroke-linecap: butt; stroke-dashoffset: 0; stroke-linejoin: miter; stroke-miterlimit: 4; fill: rgb(247,80,43); fillRule: nonzero; opacity: 1;" vector-effect="non-scaling-stroke" transform=" translate(-106.66, -197.1)" d="M 53.3722 199.45 L 53.7759 187.889 L 58.8132 188.065 C 61.2246 188.149 62.5402 189.303 62.475 191.169 C 62.4203 192.738 60.9522 193.58 59.7124 193.569 L 59.7089 193.669 C 60.9465 193.745 62.67 194.582 62.6014 196.548 C 62.531 198.563 61.1016 199.72 58.6738 199.635 L 53.3722 199.45 Z M 55.4431 197.918 L 58.515 198.025 C 59.6381 198.065 60.4545 197.415 60.492 196.342 C 60.5295 195.268 59.7604 194.563 58.6373 194.524 L 55.5653 194.417 L 55.4431 197.918 Z M 55.6201 192.848 L 58.3452 192.943 C 59.5674 192.986 60.3832 192.353 60.419 191.329 C 60.4548 190.305 59.6833 189.666 58.4612 189.623 L 55.7361 189.528 L 55.6201 192.848 Z M 68.271 200.218 C 65.7441 200.13 64.0864 198.352 64.1793 195.693 C 64.2721 193.034 66.0498 191.377 68.5767 191.465 C 71.1036 191.553 72.7778 193.331 72.6849 195.99 C 72.5921 198.649 70.7979 200.306 68.271 200.218 Z M 66.1612 195.762 C 66.096 197.629 67.0729 198.539 68.3281 198.583 C 69.5833 198.627 70.6379 197.787 70.703 195.921 C 70.7676 194.071 69.7754 193.127 68.5202 193.083 C 67.265 193.039 66.2258 193.913 66.1612 195.762 Z M 78.1741 200.564 C 75.6471 200.476 73.9895 198.698 74.0823 196.039 C 74.1752 193.38 75.9528 191.722 78.4797 191.811 C 81.0067 191.899 82.6808 193.677 82.588 196.336 C 82.4951 198.995 80.701 200.652 78.1741 200.564 Z M 76.0642 196.108 C 75.9991 197.975 76.976 198.885 78.2312 198.929 C 79.4864 198.973 80.5409 198.133 80.6061 196.267 C 80.6707 194.417 79.6784 193.473 78.4232 193.429 C 77.168 193.385 76.1288 194.258 76.0642 196.108 Z M 84.2045 200.527 L 84.6083 188.965 L 86.5406 189.033 L 86.2955 196.052 L 90.0092 192.461 L 92.404 192.545 L 88.9018 195.763 L 92.479 200.815 L 90.0677 200.731 L 87.5514 197.022 L 86.2188 198.249 L 86.1369 200.594 L 84.2045 200.527 Z M 97.4037 200.987 L 97.8074 189.426 L 100.698 189.527 L 103.632 199.27 L 103.731 199.274 L 107.337 189.759 L 110.227 189.86 L 109.824 201.421 L 107.875 201.353 L 108.254 192.387 L 108.188 192.385 L 104.704 201.242 L 102.54 201.167 L 99.6822 192.088 L 99.5996 192.085 L 99.3525 201.056 L 97.4037 200.987 Z M 116.026 201.886 C 113.747 201.806 111.917 200.238 112.017 197.364 C 112.111 194.672 113.904 193.048 116.398 193.135 C 118.793 193.218 120.46 194.715 120.366 197.424 C 120.355 197.721 120.331 197.935 120.293 198.099 L 113.868 197.875 C 113.878 199.479 114.857 200.34 116.178 200.386 C 117.185 200.422 117.994 199.987 118.293 199.022 L 120.192 199.088 C 119.81 201.026 118.14 201.96 116.026 201.886 Z M 113.958 196.704 L 118.418 196.86 C 118.464 195.538 117.637 194.6 116.299 194.553 C 114.994 194.508 114.086 195.402 113.958 196.704 Z M 125.752 202.225 C 123.473 202.146 121.642 200.577 121.743 197.703 C 121.837 195.011 123.63 193.387 126.124 193.474 C 128.518 193.558 130.186 195.055 130.091 197.763 C 130.081 198.061 130.057 198.275 130.018 198.439 L 123.593 198.215 C 123.604 199.819 124.582 200.68 125.903 200.726 C 126.911 200.761 127.72 200.326 128.018 199.361 L 129.917 199.427 C 129.536 201.365 127.866 202.299 125.752 202.225 Z M 123.684 197.044 L 128.143 197.199 C 128.189 195.878 127.362 194.94 126.025 194.893 C 124.72 194.847 123.812 195.742 123.684 197.044 Z M 134.687 202.289 C 133.168 202.236 132.302 201.445 132.356 199.91 L 132.513 195.417 L 130.762 195.356 L 130.813 193.886 L 132.564 193.947 L 132.645 191.635 L 134.577 191.703 L 134.496 194.015 L 136.842 194.097 L 136.79 195.567 L 134.445 195.485 L 134.3 199.647 C 134.277 200.291 134.611 200.666 135.239 200.688 L 136.61 200.736 L 136.553 202.355 L 134.687 202.289 Z M 137.976 202.404 L 138.264 194.146 L 140.213 194.214 L 139.925 202.472 L 137.976 202.404 Z M 138.305 192.99 L 138.38 190.843 L 140.328 190.911 L 140.253 193.058 L 138.305 192.99 Z M 142.01 202.545 L 142.299 194.287 L 144.231 194.355 L 144.124 196.468 L 144.207 196.47 C 144.482 195.207 145.627 194.155 147.064 194.206 C 149.046 194.275 149.878 195.544 149.799 197.807 L 149.624 202.811 L 147.675 202.743 L 147.841 197.986 C 147.89 196.583 147.289 195.817 146.166 195.778 C 144.927 195.735 144.139 196.981 144.094 198.285 L 143.943 202.613 L 142.01 202.545 Z M 150.969 204.032 C 151.008 202.909 152.083 202.434 153.34 202.412 L 153.343 202.329 C 152.187 202.289 151.695 201.693 151.723 200.9 C 151.752 200.074 152.484 199.471 153.59 199.51 L 153.594 199.411 C 152.343 199.235 151.733 198.255 151.771 197.165 C 151.828 195.513 153.141 194.401 155.783 194.494 L 156.675 194.525 C 157.319 194.547 157.892 194.253 157.915 193.592 L 157.931 193.13 L 159.946 193.2 L 159.936 193.465 C 159.892 194.736 158.979 195.316 157.971 195.281 L 157.968 195.364 C 158.544 195.45 159.578 196.164 159.531 197.485 C 159.467 199.335 157.787 200.087 155.69 200.013 L 154.616 199.976 C 153.889 199.95 153.567 200.187 153.552 200.6 C 153.537 201.03 153.844 201.255 154.57 201.281 L 156.8 201.358 C 159.096 201.439 159.952 202.494 159.909 203.716 C 159.856 205.252 158.492 206.428 155.155 206.311 C 151.753 206.193 150.928 205.188 150.969 204.032 Z M 152.926 203.852 C 152.897 204.695 153.792 205.106 155.245 205.157 C 156.699 205.208 157.705 204.813 157.734 203.971 C 157.765 203.095 156.88 202.866 155.377 202.813 C 153.824 202.759 152.958 202.944 152.926 203.852 Z M 153.752 197.25 C 153.713 198.373 154.69 198.804 155.549 198.834 L 155.631 198.837 C 156.507 198.868 157.512 198.506 157.551 197.383 C 157.592 196.194 156.614 195.796 155.739 195.765 L 155.656 195.762 C 154.797 195.732 153.794 196.061 153.752 197.25 Z" stroke-linecap="round"/>
      </g>
      <g transform="matrix(1 0 0 1 40.4 127.23)">
        <rect style="stroke: none; strokeWidth: 1; stroke-dasharray: none; stroke-linecap: butt; stroke-dashoffset: 0; stroke-linejoin: miter; stroke-miterlimit: 4; fill: rgb(240,253,244); fillRule: nonzero; opacity: 1;" vector-effect="non-scaling-stroke" x="-62.643" y="-21.69025" rx="9.27439" ry="9.27439" width="125.286" height="43.3805"/>
      </g>
      <g transform="matrix(1 0 0 1 40.4 127.23)">
        <rect style="stroke: rgb(23,156,72); strokeWidth: 1; stroke-dasharray: none; stroke-linecap: butt; stroke-dashoffset: 0; stroke-linejoin: miter; stroke-miterlimit: 4; fill: none; fillRule: nonzero; opacity: 1;" vector-effect="non-scaling-stroke" x="-62.643" y="-21.69025" rx="9.27439" ry="9.27439" width="125.286" height="43.3805"/>
      </g>
      <g transform="matrix(1 0 0 1 -0.28 127.23)">
        <rect style="stroke: none; strokeWidth: 1; stroke-dasharray: none; stroke-linecap: butt; stroke-dashoffset: 0; stroke-linejoin: miter; stroke-miterlimit: 4; fill: rgb(34,197,94); fillRule: nonzero; opacity: 1;" vector-effect="non-scaling-stroke" x="-16.00945" y="-15.49305" rx="4.6372" ry="4.6372" width="32.0189" height="30.9861"/>
      </g>
      <g transform="matrix(1 0 0 1 -0.28 127.23)">
        <rect style="stroke: rgb(23,156,72); strokeWidth: 0.576485; stroke-dasharray: none; stroke-linecap: butt; stroke-dashoffset: 0; stroke-linejoin: miter; stroke-miterlimit: 4; fill: none; fillRule: nonzero; opacity: 1;" vector-effect="non-scaling-stroke" x="-16.00945" y="-15.49305" rx="4.6372" ry="4.6372" width="32.0189" height="30.9861"/>
      </g>
      <g transform="matrix(1 0 0 1 1.3 124.84)">
        <path style="stroke: none; strokeWidth: 1; stroke-dasharray: none; stroke-linecap: butt; stroke-dashoffset: 0; stroke-linejoin: miter; stroke-miterlimit: 4; fill: rgb(255,255,255); fillRule: evenodd; opacity: 1;" vector-effect="non-scaling-stroke" transform=" translate(-159.54, -279.92)" d="M 153.68 277.026 C 152.773 277.269 152.234 278.202 152.477 279.11 L 153.829 284.153 C 154.072 285.06 155.005 285.599 155.912 285.356 L 165.398 282.814 C 166.306 282.571 166.845 281.638 166.601 280.73 L 165.25 275.687 C 165.007 274.78 164.074 274.241 163.166 274.484 L 153.68 277.026 Z M 164.26 278.655 C 164.136 278.195 163.663 277.922 163.203 278.046 L 162.093 278.343 C 161.633 278.466 161.36 278.939 161.483 279.399 C 161.606 279.859 162.079 280.132 162.539 280.009 L 163.65 279.712 C 164.11 279.588 164.383 279.115 164.26 278.655 Z" stroke-linecap="round"/>
      </g>
      <g transform="matrix(1 0 0 1 -2.75 131.18)">
        <path style="stroke: none; strokeWidth: 1; stroke-dasharray: none; stroke-linecap: butt; stroke-dashoffset: 0; stroke-linejoin: miter; stroke-miterlimit: 4; fill: rgb(255,255,255); fillRule: evenodd; opacity: 1;" vector-effect="non-scaling-stroke" transform=" translate(-155.49, -286.25)" d="M 151.929 281.943 L 150.584 281.943 C 149.645 281.943 148.883 282.705 148.883 283.645 L 148.883 283.668 L 152.392 283.668 C 152.312 283.378 152.228 283.065 152.137 282.727 L 152.137 282.727 C 152.063 282.449 151.993 282.189 151.929 281.943 Z M 152.927 285.339 L 148.883 285.339 L 148.883 288.866 C 148.883 289.805 149.645 290.567 150.584 290.567 L 160.405 290.567 C 161.344 290.567 162.106 289.805 162.106 288.866 L 162.106 285.339 L 161.99 285.339 C 161.765 285.401 161.526 285.465 161.273 285.533 L 158.353 286.315 C 156.056 286.93 154.908 287.238 153.999 286.724 C 153.986 286.717 153.973 286.709 153.96 286.702 C 153.502 286.432 153.197 286.001 152.927 285.339 Z M 152.074 287.692 C 152.536 287.692 152.91 288.067 152.91 288.528 C 152.91 288.989 152.536 289.364 152.074 289.364 L 150.871 289.364 C 150.409 289.364 150.035 288.989 150.035 288.528 C 150.035 288.067 150.409 287.692 150.871 287.692 L 152.074 287.692 Z" stroke-linecap="round"/>
      </g>
      <g transform="matrix(1 0 0 1 59.67 128.93)">
        <path style="stroke: none; strokeWidth: 1; stroke-dasharray: none; stroke-linecap: butt; stroke-dashoffset: 0; stroke-linejoin: miter; stroke-miterlimit: 4; fill: rgb(34,197,94); fillRule: nonzero; opacity: 1;" vector-effect="non-scaling-stroke" transform=" translate(-217.91, -284.01)" d="M 183.845 288.305 L 183.845 276.737 L 188.604 276.737 C 191.183 276.737 192.885 278.225 192.885 280.588 C 192.885 283.001 191.183 284.455 188.604 284.455 L 185.861 284.455 L 185.861 288.305 L 183.845 288.305 Z M 185.861 282.835 L 188.324 282.835 C 189.728 282.835 190.786 282.158 190.786 280.588 C 190.786 279.051 189.728 278.357 188.324 278.357 L 185.861 278.357 L 185.861 282.835 Z M 196.709 288.504 C 195.04 288.504 194.081 287.545 194.081 286.107 C 194.081 284.471 195.271 283.761 196.973 283.645 L 199.617 283.463 L 199.617 283.133 C 199.617 282.009 199.055 281.298 197.865 281.298 C 196.742 281.298 196.015 281.86 196.015 282.753 L 193.982 282.753 C 193.982 280.968 195.469 279.778 197.932 279.778 C 200.179 279.778 201.567 280.836 201.567 282.901 L 201.567 285.926 C 201.567 286.488 201.782 286.735 202.344 286.735 L 202.708 286.735 L 202.708 288.305 L 201.683 288.305 C 200.41 288.305 199.733 287.744 199.733 286.669 L 199.733 286.537 L 199.65 286.537 C 199.386 287.43 198.477 288.504 196.709 288.504 Z M 196.081 285.959 C 196.081 286.587 196.494 287.132 197.551 287.132 C 198.692 287.132 199.634 286.339 199.65 284.62 L 197.717 284.769 C 196.593 284.852 196.081 285.215 196.081 285.959 Z M 203.814 291.28 L 203.814 289.644 L 205.037 289.644 C 206.045 289.644 206.227 289.231 206.541 288.405 L 206.706 287.909 L 203.219 280.042 L 205.318 280.042 L 207.698 285.793 L 207.78 285.793 L 209.879 280.042 L 211.961 280.042 L 208.359 288.983 C 207.698 290.603 207.086 291.28 205.301 291.28 L 203.814 291.28 Z M 213.357 288.305 L 213.357 280.042 L 215.291 280.042 L 215.258 281.993 L 215.34 281.993 C 215.654 280.902 216.414 279.795 217.951 279.795 C 219.356 279.795 220.116 280.753 220.281 282.059 L 220.381 282.059 C 220.579 281.001 221.537 279.795 222.926 279.795 C 224.76 279.795 225.504 281.117 225.504 283.248 L 225.504 288.305 L 223.57 288.305 L 223.57 283.529 C 223.57 282.174 223.124 281.414 222.149 281.414 C 221.108 281.414 220.414 282.356 220.414 283.711 L 220.414 288.305 L 218.447 288.305 L 218.447 283.529 C 218.447 282.174 218.001 281.414 217.059 281.414 C 215.952 281.414 215.291 282.422 215.291 283.777 L 215.291 288.305 L 213.357 288.305 Z M 231.392 288.553 C 229.111 288.553 227.227 287.049 227.227 284.174 C 227.227 281.48 228.963 279.795 231.458 279.795 C 233.854 279.795 235.573 281.232 235.573 283.943 C 235.573 284.24 235.556 284.455 235.523 284.62 L 229.095 284.62 C 229.161 286.223 230.169 287.049 231.491 287.049 C 232.499 287.049 233.292 286.587 233.557 285.612 L 235.457 285.612 C 235.143 287.562 233.507 288.553 231.392 288.553 Z M 229.144 283.447 L 233.606 283.447 C 233.606 282.125 232.747 281.216 231.408 281.216 C 230.103 281.216 229.227 282.141 229.144 283.447 Z M 237.339 288.305 L 237.339 280.042 L 239.272 280.042 L 239.239 282.158 L 239.322 282.158 C 239.553 280.885 240.661 279.795 242.098 279.795 C 244.082 279.795 244.957 281.034 244.957 283.298 L 244.957 288.305 L 243.007 288.305 L 243.007 283.546 C 243.007 282.141 242.379 281.398 241.256 281.398 C 240.016 281.398 239.272 282.67 239.272 283.976 L 239.272 288.305 L 237.339 288.305 Z M 250.104 288.305 C 248.583 288.305 247.691 287.545 247.691 286.008 L 247.691 281.513 L 245.939 281.513 L 245.939 280.042 L 247.691 280.042 L 247.691 277.729 L 249.624 277.729 L 249.624 280.042 L 251.971 280.042 L 251.971 281.513 L 249.624 281.513 L 249.624 285.678 C 249.624 286.322 249.971 286.686 250.599 286.686 L 251.971 286.686 L 251.971 288.305 L 250.104 288.305 Z" stroke-linecap="round"/>
      </g>
      <g transform="matrix(1 0 0 1 81.02 148.89)">
        <rect style="stroke: none; strokeWidth: 1; stroke-dasharray: none; stroke-linecap: butt; stroke-dashoffset: 0; stroke-linejoin: miter; stroke-miterlimit: 4; fill: rgb(34,197,94); fillRule: nonzero; opacity: 1;" vector-effect="non-scaling-stroke" x="-31.78255" y="-5.8824" rx="5.76485" ry="5.76485" width="63.5651" height="11.7648"/>
      </g>
      <g transform="matrix(1 0 0 1 77.1 149.07)">
        <path style="stroke: none; strokeWidth: 1; stroke-dasharray: none; stroke-linecap: butt; stroke-dashoffset: 0; stroke-linejoin: miter; stroke-miterlimit: 4; fill: rgb(255,255,255); fillRule: nonzero; opacity: 1;" vector-effect="non-scaling-stroke" transform=" translate(-235.34, -304.14)" d="M 211.606 306.969 L 213.85 301.32 L 215.02 301.32 L 217.272 306.969 L 216.207 306.969 L 215.65 305.501 L 213.221 305.501 L 212.656 306.969 L 211.606 306.969 Z M 213.487 304.734 L 215.383 304.734 L 214.455 302.256 L 214.415 302.256 L 213.487 304.734 Z M 218.407 306.969 L 218.407 301.32 L 220.731 301.32 C 221.99 301.32 222.822 302.046 222.822 303.2 C 222.822 304.379 221.99 305.089 220.731 305.089 L 219.392 305.089 L 219.392 306.969 L 218.407 306.969 Z M 219.392 304.298 L 220.594 304.298 C 221.28 304.298 221.797 303.967 221.797 303.2 C 221.797 302.45 221.28 302.111 220.594 302.111 L 219.392 302.111 L 219.392 304.298 Z M 224.162 306.969 L 224.162 301.32 L 226.487 301.32 C 227.746 301.32 228.577 302.046 228.577 303.2 C 228.577 304.379 227.746 305.089 226.487 305.089 L 225.147 305.089 L 225.147 306.969 L 224.162 306.969 Z M 225.147 304.298 L 226.349 304.298 C 227.035 304.298 227.552 303.967 227.552 303.2 C 227.552 302.45 227.035 302.111 226.349 302.111 L 225.147 302.111 L 225.147 304.298 Z M 229.917 306.969 L 229.917 301.32 L 232.379 301.32 C 233.614 301.32 234.3 301.982 234.3 302.934 C 234.3 303.757 233.654 304.282 232.96 304.314 L 232.96 304.355 C 233.759 304.411 234.09 304.895 234.163 305.63 C 234.243 306.372 234.292 306.744 234.381 306.969 L 233.364 306.969 C 233.299 306.816 233.226 306.509 233.154 305.807 C 233.097 305.194 232.896 304.879 232.218 304.879 L 230.902 304.879 L 230.902 306.969 L 229.917 306.969 Z M 230.902 304.112 L 232.105 304.112 C 232.742 304.112 233.291 303.79 233.291 303.079 C 233.291 302.401 232.766 302.111 232.129 302.111 L 230.902 302.111 L 230.902 304.112 Z M 238.318 307.091 C 236.647 307.091 235.493 305.888 235.493 304.145 C 235.493 302.401 236.647 301.199 238.318 301.199 C 239.988 301.199 241.142 302.401 241.142 304.145 C 241.142 305.888 239.988 307.091 238.318 307.091 Z M 236.534 304.145 C 236.534 305.363 237.18 306.195 238.31 306.195 C 239.456 306.195 240.093 305.363 240.093 304.145 C 240.093 302.926 239.456 302.095 238.318 302.095 C 237.18 302.095 236.534 302.926 236.534 304.145 Z M 243.966 306.969 L 241.747 301.32 L 242.812 301.32 L 244.564 306.017 L 246.315 301.32 L 247.38 301.32 L 245.153 306.969 L 243.966 306.969 Z M 248.578 306.969 L 248.578 301.32 L 252.621 301.32 L 252.621 302.135 L 249.563 302.135 L 249.563 303.693 L 252.25 303.693 L 252.25 304.484 L 249.563 304.484 L 249.563 306.146 L 252.734 306.146 L 252.734 306.969 L 248.578 306.969 Z M 254.207 306.969 L 254.207 301.32 L 256.322 301.32 C 258.065 301.32 259.082 302.434 259.082 304.145 C 259.082 306.235 257.629 306.969 256.322 306.969 L 254.207 306.969 Z M 255.192 306.17 L 256.16 306.17 C 257.137 306.17 258.073 305.662 258.073 304.145 C 258.073 302.644 257.137 302.119 256.16 302.119 L 255.192 302.119 L 255.192 306.17 Z" stroke-linecap="round"/>
      </g>
      <g transform="matrix(1 0 0 1 105.89 148.89)">
        <path style="stroke: none; strokeWidth: 1; stroke-dasharray: none; stroke-linecap: butt; stroke-dashoffset: 0; stroke-linejoin: miter; stroke-miterlimit: 4; fill: rgb(255,255,255); fillRule: nonzero; opacity: 1;" vector-effect="non-scaling-stroke" transform=" translate(-264.13, -303.97)" d="M 266.315 301.727 C 266.285 301.748 266.255 301.779 266.195 301.84 L 263.214 304.913 C 263.129 305.001 263.086 305.045 263.032 305.045 C 262.979 305.045 262.936 305.001 262.85 304.913 L 262.064 304.102 C 262.004 304.04 261.974 304.009 261.944 303.989 C 261.821 303.904 261.661 303.904 261.538 303.989 C 261.509 304.009 261.479 304.04 261.419 304.102 C 261.359 304.164 261.329 304.195 261.309 304.226 C 261.227 304.352 261.227 304.517 261.309 304.644 C 261.329 304.675 261.359 304.706 261.419 304.767 L 262.651 306.038 C 262.666 306.054 262.685 306.074 262.709 306.099 C 262.769 306.161 262.799 306.191 262.829 306.212 C 262.952 306.297 263.112 306.297 263.235 306.212 C 263.265 306.191 263.295 306.161 263.355 306.099 L 266.84 302.506 C 266.9 302.444 266.93 302.413 266.95 302.382 C 267.032 302.256 267.032 302.091 266.95 301.964 C 266.93 301.933 266.9 301.902 266.84 301.84 C 266.78 301.779 266.75 301.748 266.721 301.727 C 266.598 301.642 266.438 301.642 266.315 301.727 Z" stroke-linecap="round"/>
      </g>
      <g transform="matrix(1 0 0 1 67.88 39.86)">
        <rect style="stroke: none; strokeWidth: 1; stroke-dasharray: none; stroke-linecap: butt; stroke-dashoffset: 0; stroke-linejoin: miter; stroke-miterlimit: 4; fill: rgb(140,59,243); fillRule: nonzero; opacity: 1;" vector-effect="non-scaling-stroke" x="-27.5112" y="-5.78065" rx="5.76485" ry="5.76485" width="55.0224" height="11.5613"/>
      </g>
      <g transform="matrix(1 0 0 1 67.68 40.07)">
        <path style="stroke: none; strokeWidth: 1; stroke-dasharray: none; stroke-linecap: butt; stroke-dashoffset: 0; stroke-linejoin: miter; stroke-miterlimit: 4; fill: rgb(255,255,255); fillRule: nonzero; opacity: 1;" vector-effect="non-scaling-stroke" transform=" translate(-225.92, -195.15)" d="M 207.288 197.581 C 206.981 197.856 206.392 198.058 205.803 198.058 C 204.132 198.058 203.002 196.855 203.002 195.112 C 203.002 193.368 204.132 192.166 205.803 192.166 C 207.474 192.166 208.604 193.368 208.604 195.112 C 208.604 195.919 208.321 196.605 207.901 197.065 L 208.902 198.138 L 207.829 198.138 L 207.288 197.581 Z M 204.052 195.112 C 204.052 196.33 204.665 197.162 205.803 197.162 C 206.134 197.162 206.432 197.081 206.658 196.928 L 205.529 195.725 L 206.586 195.725 L 207.24 196.395 C 207.449 196.064 207.546 195.612 207.546 195.112 C 207.546 193.893 206.941 193.062 205.803 193.062 C 204.665 193.062 204.052 193.893 204.052 195.112 Z M 212.481 198.058 C 211.206 198.058 210.181 197.396 210.181 195.83 L 210.181 192.287 L 211.174 192.287 L 211.174 195.717 C 211.174 196.589 211.553 197.218 212.481 197.218 C 213.409 197.218 213.797 196.589 213.797 195.717 L 213.797 192.287 L 214.781 192.287 L 214.781 195.83 C 214.781 197.396 213.765 198.058 212.481 198.058 Z M 215.586 197.937 L 217.829 192.287 L 219 192.287 L 221.251 197.937 L 220.186 197.937 L 219.629 196.468 L 217.2 196.468 L 216.635 197.937 L 215.586 197.937 Z M 217.466 195.701 L 219.363 195.701 L 218.435 193.223 L 218.394 193.223 L 217.466 195.701 Z M 222.386 197.937 L 222.386 192.287 L 223.371 192.287 L 223.371 197.121 L 226.285 197.121 L 226.285 197.937 L 222.386 197.937 Z M 227.582 197.937 L 227.582 192.287 L 228.575 192.287 L 228.575 197.937 L 227.582 197.937 Z M 230.271 197.937 L 230.271 192.287 L 234.307 192.287 L 234.307 193.102 L 231.256 193.102 L 231.256 194.749 L 233.976 194.749 L 233.976 195.564 L 231.256 195.564 L 231.256 197.937 L 230.271 197.937 Z M 235.648 197.937 L 235.648 192.287 L 236.641 192.287 L 236.641 197.937 L 235.648 197.937 Z M 238.337 197.937 L 238.337 192.287 L 242.381 192.287 L 242.381 193.102 L 239.322 193.102 L 239.322 194.66 L 242.009 194.66 L 242.009 195.451 L 239.322 195.451 L 239.322 197.113 L 242.494 197.113 L 242.494 197.937 L 238.337 197.937 Z M 243.966 197.937 L 243.966 192.287 L 246.081 192.287 C 247.824 192.287 248.841 193.401 248.841 195.112 C 248.841 197.202 247.388 197.937 246.081 197.937 L 243.966 197.937 Z M 244.951 197.138 L 245.919 197.138 C 246.896 197.138 247.832 196.629 247.832 195.112 C 247.832 193.611 246.896 193.086 245.919 193.086 L 244.951 193.086 L 244.951 197.138 Z" stroke-linecap="round"/>
      </g>
    </g>
  </g>
  <g transform="matrix(1 0 0 1 110 274.5)">
    <g style="" vector-effect="non-scaling-stroke">
      <g transform="matrix(1 0.09 -0.09 1 0 0)">
        <rect style="stroke: none; strokeWidth: 1; stroke-dasharray: none; stroke-linecap: butt; stroke-dashoffset: 0; stroke-linejoin: miter; stroke-miterlimit: 4; fill: rgb(226,219,251); fillRule: nonzero; opacity: 1;" vector-effect="non-scaling-stroke" x="-68.3065" y="-21.6934" rx="9.27575" ry="9.27575" width="136.613" height="43.3868"/>
      </g>
      <g transform="matrix(1 0.09 -0.09 1 -46.15 -4.22)">
        <rect style="stroke: none; strokeWidth: 1; stroke-dasharray: none; stroke-linecap: butt; stroke-dashoffset: 0; stroke-linejoin: miter; stroke-miterlimit: 4; fill: rgb(140,59,243); fillRule: nonzero; opacity: 1;" vector-effect="non-scaling-stroke" x="-16.0118" y="-15.4953" rx="4.63788" ry="4.63788" width="32.0236" height="30.9906"/>
      </g>
      <g transform="matrix(1 0.09 -0.09 1 -46.15 -4.22)">
        <rect style="stroke: rgb(165,106,238); strokeWidth: 0.576569; stroke-dasharray: none; stroke-linecap: butt; stroke-dashoffset: 0; stroke-linejoin: miter; stroke-miterlimit: 4; fill: none; fillRule: nonzero; opacity: 1;" vector-effect="non-scaling-stroke" x="-16.0118" y="-15.4953" rx="4.63788" ry="4.63788" width="32.0236" height="30.9906"/>
      </g>
      <g transform="matrix(1 0 0 1 -45.83 -7.04)">
        <path style="stroke: none; strokeWidth: 1; stroke-dasharray: none; stroke-linecap: butt; stroke-dashoffset: 0; stroke-linejoin: miter; stroke-miterlimit: 4; fill: rgb(255,255,255); fillRule: nonzero; opacity: 1;" vector-effect="non-scaling-stroke" transform=" translate(-28.67, -25.78)" d="M 21.907 24.5053 L 28.3593 28.5041 L 35.43 25.7422 C 35.4444 25.3091 35.2926 24.8869 35.0058 24.562 C 34.719 24.2372 34.3188 24.0343 33.8873 23.9949 L 23.7412 23.0668 C 23.3097 23.0272 22.8793 23.1542 22.5383 23.4216 C 22.1973 23.6891 21.9715 24.0767 21.907 24.5053 Z" stroke-linecap="round"/>
      </g>
      <g transform="matrix(1 0 0 1 -46.23 -2.55)">
        <path style="stroke: none; strokeWidth: 1; stroke-dasharray: none; stroke-linecap: butt; stroke-dashoffset: 0; stroke-linejoin: miter; stroke-miterlimit: 4; fill: rgb(255,255,255); fillRule: nonzero; opacity: 1;" vector-effect="non-scaling-stroke" transform=" translate(-28.27, -30.27)" d="M 35.2615 27.6312 L 28.1881 30.3945 L 21.7334 26.3938 L 21.2785 31.3671 C 21.2375 31.8155 21.3763 32.2619 21.6644 32.6081 C 21.9525 32.9542 22.3663 33.1717 22.8148 33.2127 L 32.9609 34.1408 C 33.4094 34.1818 33.8558 34.043 34.2019 33.7549 C 34.548 33.4668 34.7655 33.053 34.8066 32.6045 L 35.2615 27.6312 Z" stroke-linecap="round"/>
      </g>
      <g transform="matrix(1 0 0 1 19.08 1.97)">
        <path style="stroke: none; strokeWidth: 1; stroke-dasharray: none; stroke-linecap: butt; stroke-dashoffset: 0; stroke-linejoin: miter; stroke-miterlimit: 4; fill: rgb(140,59,243); fillRule: nonzero; opacity: 1;" vector-effect="non-scaling-stroke" transform=" translate(-93.58, -34.8)" d="M 53.5835 36.9371 L 54.6374 25.4154 L 62.8837 26.1697 L 62.7316 27.8321 L 56.4935 27.2615 L 56.2029 30.4382 L 61.6839 30.9396 L 61.5364 32.5526 L 56.0553 32.0513 L 55.7452 35.4419 L 62.2138 36.0336 L 62.0602 37.7125 L 53.5835 36.9371 Z M 64.0101 37.8909 L 64.7628 29.6611 L 66.6886 29.8372 L 66.478 31.7764 L 66.5603 31.784 C 66.9724 30.7262 67.8305 29.6927 69.3612 29.8327 C 70.7603 29.9607 71.4301 30.9846 71.4757 32.3 L 71.5745 32.309 C 71.8684 31.2736 72.9329 30.1594 74.3155 30.2859 C 76.1426 30.453 76.7628 31.8375 76.5686 33.9608 L 76.1079 38.9974 L 74.1821 38.8213 L 74.6172 34.0645 C 74.7407 32.7148 74.3655 31.917 73.3944 31.8282 C 72.3574 31.7333 71.5803 32.6083 71.4569 33.958 L 71.0383 38.5337 L 69.0796 38.3546 L 69.5147 33.5977 C 69.6382 32.2481 69.263 31.4503 68.3248 31.3644 C 67.222 31.2636 66.4718 32.2074 66.3484 33.5571 L 65.9358 38.067 L 64.0101 37.8909 Z M 80.5225 39.6004 C 78.86 39.4484 77.9927 38.4064 78.1237 36.9744 C 78.2727 35.3449 79.5226 34.7455 81.2284 34.7854 L 83.8785 34.8452 L 83.9087 34.516 C 84.011 33.3968 83.5161 32.6378 82.3311 32.5294 C 81.2118 32.427 80.4364 32.9204 80.3551 33.8092 L 78.3306 33.6241 C 78.4932 31.8464 80.0829 30.7968 82.5354 31.0212 C 84.7739 31.2259 86.0602 32.4058 85.872 34.4632 L 85.5964 37.4754 C 85.5453 38.035 85.7366 38.3014 86.2963 38.3526 L 86.6584 38.3858 L 86.5154 39.9494 L 85.4949 39.8561 C 84.2275 39.7401 83.6038 39.1188 83.7017 38.0489 L 83.7137 37.9172 L 83.6314 37.9097 C 83.2868 38.7744 82.2836 39.7615 80.5225 39.6004 Z M 80.1288 37.0084 C 80.0716 37.6339 80.4334 38.2147 81.4869 38.3111 C 82.6226 38.4149 83.633 37.7107 83.8061 36.0004 L 81.8667 35.9724 C 80.74 35.9523 80.1966 36.2677 80.1288 37.0084 Z M 87.7649 40.0637 L 88.5177 31.8339 L 90.4599 32.0116 L 89.7071 40.2414 L 87.7649 40.0637 Z M 88.623 30.6817 L 88.8188 28.542 L 90.761 28.7197 L 90.5653 30.8594 L 88.623 30.6817 Z M 94.0241 40.6363 C 92.5099 40.4977 91.7891 39.6683 91.9291 38.1376 L 92.7737 28.9038 L 94.683 29.0784 L 93.8685 37.983 C 93.8098 38.625 94.0236 39.0097 94.6819 39.0699 L 95.2087 39.1181 L 95.0611 40.7311 L 94.0241 40.6363 Z M 103.022 41.7082 C 100.816 41.5065 99.5643 40.4957 99.751 38.4547 L 101.743 38.6369 C 101.661 39.5257 102.141 40.2667 103.211 40.3646 C 104.199 40.4549 104.747 40.0901 104.804 39.4646 C 104.863 38.8227 104.43 38.4678 103.555 38.2384 L 102.746 38.015 C 101.193 37.5742 100.276 36.7102 100.404 35.3112 C 100.556 33.6487 101.976 32.816 104.1 33.0102 C 106.338 33.215 107.437 34.4442 107.287 36.2727 L 105.295 36.0905 C 105.373 35.2346 104.946 34.4652 103.925 34.3719 C 102.987 34.2861 102.385 34.6957 102.327 35.3377 C 102.269 35.9631 102.685 36.3165 103.575 36.5639 L 104.385 36.7873 C 106.068 37.2566 106.926 38.0323 106.788 39.5465 C 106.645 41.1102 105.178 41.9055 103.022 41.7082 Z M 112.297 42.5567 C 110.026 42.3489 108.287 40.6794 108.548 37.8155 C 108.794 35.1326 110.676 33.6118 113.161 33.8391 C 115.548 34.0574 117.129 35.646 116.882 38.3454 C 116.855 38.6416 116.819 38.8541 116.771 39.0157 L 110.368 38.43 C 110.288 40.0326 111.216 40.9474 112.533 41.0679 C 113.537 41.1597 114.369 40.7711 114.722 39.8241 L 116.614 39.9972 C 116.124 41.9109 114.404 42.7494 112.297 42.5567 Z M 110.524 37.2659 L 114.968 37.6724 C 115.089 36.3556 114.315 35.3721 112.982 35.2501 C 111.682 35.1312 110.725 35.9731 110.524 37.2659 Z M 118.243 42.8516 L 118.996 34.6218 L 120.922 34.7979 L 120.696 36.9018 L 120.778 36.9093 C 121.125 35.663 122.327 34.6775 123.759 34.8085 C 125.734 34.9892 126.493 36.3034 126.287 38.5584 L 125.831 43.5456 L 123.889 43.368 L 124.322 38.6276 C 124.45 37.2286 123.893 36.4307 122.773 36.3283 C 121.539 36.2154 120.682 37.415 120.563 38.7153 L 120.169 43.0277 L 118.243 42.8516 Z M 130.957 44.0145 C 129.442 43.876 128.623 43.0375 128.763 41.5068 L 129.172 37.0298 L 127.428 36.8702 L 127.562 35.4053 L 129.306 35.5649 L 129.517 33.2605 L 131.443 33.4367 L 131.232 35.741 L 133.569 35.9548 L 133.435 37.4197 L 131.098 37.2059 L 130.719 41.3538 C 130.66 41.9957 130.973 42.3894 131.598 42.4466 L 132.964 42.5716 L 132.817 44.1846 L 130.957 44.0145 Z" stroke-linecap="round"/>
      </g>
      <g transform="matrix(1 0.09 -0.09 1 0 0)">
        <rect style="stroke: rgb(165,106,238); strokeWidth: 1; stroke-dasharray: none; stroke-linecap: butt; stroke-dashoffset: 0; stroke-linejoin: miter; stroke-miterlimit: 4; fill: none; fillRule: nonzero; opacity: 1;" vector-effect="non-scaling-stroke" x="-68.3065" y="-21.6934" rx="9.27575" ry="9.27575" width="136.613" height="43.3868"/>
      </g>
    </g>
  </g>
</svg>
